<svg width="48" height="48" viewBox="0 0 48 48" fill="none" xmlns="http://www.w3.org/2000/svg">
<path d="M45.5625 0.5625H2.4375C1.40039 0.5625 0.5625 1.40039 0.5625 2.4375V45.5625C0.5625 46.5996 1.40039 47.4375 2.4375 47.4375H45.5625C46.5996 47.4375 47.4375 46.5996 47.4375 45.5625V2.4375C47.4375 1.40039 46.5996 0.5625 45.5625 0.5625ZM43.2188 43.2188H4.78125V4.78125H43.2188V43.2188ZM13.9219 34.0195V38.5312C13.9219 38.7891 14.1328 39 14.3906 39H17.2031C17.4609 39 17.6719 38.7891 17.6719 38.5312V34.0195C17.0801 34.2129 16.4531 34.3125 15.7969 34.3125C15.1406 34.3125 14.5137 34.207 13.9219 34.0195ZM17.6719 22.418V9.46875C17.6719 9.21094 17.4609 9 17.2031 9H14.3906C14.1328 9 13.9219 9.21094 13.9219 9.46875V22.418C14.5137 22.2246 15.1406 22.125 15.7969 22.125C16.4531 22.125 17.0801 22.2305 17.6719 22.418ZM13.9219 34.0195C14.5137 34.2129 15.1406 34.3125 15.7969 34.3125C16.4531 34.3125 17.0801 34.207 17.6719 34.0195C20.1211 33.2285 21.8906 30.9316 21.8906 28.2188C21.8906 25.5059 20.1211 23.209 17.6719 22.418C17.0801 22.2246 16.4531 22.125 15.7969 22.125C15.1406 22.125 14.5137 22.2305 13.9219 22.418C11.4727 23.209 9.70312 25.5059 9.70312 28.2188C9.70312 30.9316 11.4727 33.2285 13.9219 34.0195ZM13.9277 27.2402C13.9453 27.2051 13.9688 27.1699 13.9863 27.1348V27.1289L14.0566 27.0234C14.0625 27.0117 14.0684 27.0059 14.0742 26.9941C14.0918 26.9648 14.1152 26.9414 14.1328 26.9121C14.1387 26.9062 14.1445 26.8945 14.1504 26.8887C14.1797 26.8535 14.2031 26.8242 14.2324 26.7949L14.25 26.7773L14.3203 26.707L14.3438 26.6836C14.373 26.6543 14.4023 26.6309 14.4375 26.6016C14.4727 26.5723 14.502 26.5488 14.5371 26.5254C14.5488 26.5195 14.5547 26.5137 14.5664 26.5078C14.5957 26.4902 14.6191 26.4668 14.6484 26.4492C14.6543 26.4434 14.666 26.4375 14.6719 26.4316C14.707 26.4082 14.7422 26.3906 14.7832 26.3672C14.7891 26.3613 14.8008 26.3613 14.8066 26.3555C14.8359 26.3379 14.8652 26.3262 14.9004 26.3086L14.9355 26.291C14.9766 26.2734 15.0117 26.2559 15.0527 26.2441C15.0937 26.2266 15.1348 26.2148 15.1758 26.2031C15.1875 26.1973 15.1992 26.1973 15.2109 26.1914C15.2461 26.1797 15.2754 26.1738 15.3105 26.168C15.3223 26.168 15.3281 26.1621 15.3398 26.1621C15.3809 26.1504 15.4277 26.1445 15.4688 26.1387C15.4805 26.1387 15.4863 26.1387 15.498 26.1328C15.5332 26.127 15.5684 26.127 15.6035 26.1211H15.6387C15.6855 26.1211 15.7266 26.1152 15.7734 26.1152C15.8203 26.1152 15.8613 26.1152 15.9082 26.1211H15.9434C15.9785 26.1211 16.0137 26.127 16.0488 26.1328C16.0605 26.1328 16.0664 26.1328 16.0781 26.1387C16.1191 26.1445 16.166 26.1504 16.207 26.1621C16.2188 26.1621 16.2246 26.168 16.2363 26.168C16.2715 26.1738 16.3066 26.1855 16.3359 26.1914C16.3477 26.1973 16.3594 26.1973 16.3711 26.2031C16.4121 26.2148 16.4531 26.2266 16.4941 26.2441C16.5352 26.2559 16.5703 26.2734 16.6113 26.291L16.6465 26.3086C16.6758 26.3203 16.7109 26.3379 16.7402 26.3555C16.7461 26.3613 16.7578 26.3613 16.7637 26.3672C16.7988 26.3848 16.8398 26.4082 16.875 26.4316C16.8809 26.4375 16.8926 26.4434 16.8984 26.4492C16.9277 26.4668 16.957 26.4844 16.9805 26.5078C16.9922 26.5137 16.998 26.5195 17.0098 26.5254C17.0449 26.5488 17.0801 26.5781 17.1094 26.6016C17.1387 26.625 17.1738 26.6543 17.2031 26.6836L17.2266 26.707L17.2969 26.7773L17.3145 26.7949C17.3438 26.8242 17.373 26.8594 17.3965 26.8887C17.4023 26.8945 17.4082 26.9062 17.4141 26.9121C17.4375 26.9355 17.4551 26.9648 17.4727 26.9941C17.4785 27.0059 17.4844 27.0117 17.4902 27.0234L17.5605 27.1289C17.5605 27.1289 17.5605 27.1348 17.5664 27.1348C17.7617 27.4626 17.865 27.8371 17.8652 28.2188C17.8652 28.5703 17.7773 28.9043 17.625 29.1973C17.6074 29.2324 17.584 29.2676 17.5664 29.3027C17.5664 29.3027 17.5664 29.3086 17.5605 29.3086L17.4902 29.4141C17.4844 29.4258 17.4785 29.4316 17.4727 29.4434C17.4551 29.4727 17.4316 29.4961 17.4141 29.5254C17.4082 29.5312 17.4023 29.543 17.3965 29.5488C17.3672 29.584 17.3438 29.6133 17.3145 29.6426L17.2969 29.6602L17.2266 29.7305L17.2031 29.7539C17.1738 29.7832 17.1445 29.8066 17.1094 29.8359C17.0742 29.8652 17.0449 29.8887 17.0098 29.9121C16.998 29.918 16.9922 29.9238 16.9805 29.9297C16.9512 29.9473 16.9277 29.9707 16.8984 29.9883C16.8926 29.9941 16.8809 30 16.875 30.0059C16.8398 30.0293 16.8047 30.0469 16.7637 30.0703C16.7578 30.0762 16.7461 30.0762 16.7402 30.082C16.7109 30.0996 16.6816 30.1113 16.6465 30.1289L16.6113 30.1465C16.5703 30.1641 16.5352 30.1816 16.4941 30.1934C16.4531 30.2109 16.4121 30.2227 16.3711 30.2344C16.3594 30.2402 16.3477 30.2402 16.3359 30.2461C16.3008 30.2578 16.2715 30.2637 16.2363 30.2695C16.2246 30.2695 16.2188 30.2754 16.207 30.2754C16.166 30.2871 16.1191 30.293 16.0781 30.2988C16.0664 30.2988 16.0605 30.2988 16.0488 30.3047C16.0137 30.3105 15.9785 30.3105 15.9434 30.3164H15.9082C15.8613 30.3164 15.8203 30.3223 15.7734 30.3223C15.7266 30.3223 15.6855 30.3223 15.6387 30.3164H15.6035C15.5684 30.3164 15.5332 30.3105 15.498 30.3047C15.4863 30.3047 15.4805 30.3047 15.4688 30.2988C15.4277 30.293 15.3809 30.2871 15.3398 30.2754C15.3281 30.2754 15.3223 30.2695 15.3105 30.2695C15.2754 30.2637 15.2402 30.252 15.2109 30.2461C15.1992 30.2402 15.1875 30.2402 15.1758 30.2344C15.1348 30.2227 15.0937 30.2109 15.0527 30.1934C15.0117 30.1816 14.9766 30.1641 14.9355 30.1465L14.9004 30.1289C14.8711 30.1172 14.8359 30.0996 14.8066 30.082C14.8008 30.0762 14.7891 30.0762 14.7832 30.0703C14.748 30.0527 14.707 30.0293 14.6719 30.0059C14.666 30 14.6543 29.9941 14.6484 29.9883C14.6191 29.9707 14.5898 29.9531 14.5664 29.9297C14.5547 29.9238 14.5488 29.918 14.5371 29.9121C14.502 29.8887 14.4668 29.8594 14.4375 29.8359C14.4082 29.8125 14.373 29.7832 14.3438 29.7539L14.3203 29.7305L14.25 29.6602L14.2324 29.6426C14.2031 29.6133 14.1738 29.5781 14.1504 29.5488C14.1445 29.543 14.1387 29.5312 14.1328 29.5254C14.1094 29.502 14.0918 29.4727 14.0742 29.4434C14.0684 29.4316 14.0625 29.4258 14.0566 29.4141L13.9863 29.3086V29.3027C13.9629 29.2676 13.9453 29.2324 13.9277 29.1973C13.7754 28.9043 13.6875 28.5703 13.6875 28.2188C13.6875 27.8672 13.7754 27.5332 13.9277 27.2402ZM30.3281 25.582V38.5312C30.3281 38.7891 30.5391 39 30.7969 39H33.6094C33.8672 39 34.0781 38.7891 34.0781 38.5312V25.582C33.4863 25.7754 32.8594 25.875 32.2031 25.875C31.5469 25.875 30.9199 25.7695 30.3281 25.582ZM34.0781 13.9805V9.46875C34.0781 9.21094 33.8672 9 33.6094 9H30.7969C30.5391 9 30.3281 9.21094 30.3281 9.46875V13.9805C30.9199 13.7871 31.5469 13.6875 32.2031 13.6875C32.8594 13.6875 33.4863 13.793 34.0781 13.9805ZM30.3281 25.582C30.9199 25.7754 31.5469 25.875 32.2031 25.875C32.8594 25.875 33.4863 25.7695 34.0781 25.582C36.5273 24.791 38.2969 22.4941 38.2969 19.7812C38.2969 17.0684 36.5273 14.7715 34.0781 13.9805C33.4863 13.7871 32.8594 13.6875 32.2031 13.6875C31.5469 13.6875 30.9199 13.793 30.3281 13.9805C27.8789 14.7715 26.1094 17.0684 26.1094 19.7812C26.1094 22.4941 27.8789 24.791 30.3281 25.582ZM30.334 18.8027C30.3516 18.7676 30.375 18.7324 30.3926 18.6973V18.6914L30.4629 18.5859C30.4688 18.5742 30.4746 18.5684 30.4805 18.5566C30.498 18.5273 30.5215 18.5039 30.5391 18.4746C30.5449 18.4688 30.5508 18.457 30.5566 18.4512C30.5859 18.416 30.6094 18.3867 30.6387 18.3574L30.6562 18.3398L30.7266 18.2695L30.75 18.2461C30.7793 18.2168 30.8086 18.1934 30.8438 18.1641C30.8789 18.1348 30.9082 18.1113 30.9434 18.0879C30.9551 18.082 30.9609 18.0762 30.9727 18.0703C31.002 18.0527 31.0254 18.0293 31.0547 18.0117C31.0605 18.0059 31.0723 18 31.0781 17.9941C31.1133 17.9707 31.1484 17.9531 31.1895 17.9297C31.1953 17.9238 31.207 17.9238 31.2129 17.918C31.2422 17.9004 31.2715 17.8887 31.3066 17.8711L31.3418 17.8535C31.3828 17.8359 31.418 17.8184 31.459 17.8066C31.5 17.7891 31.541 17.7773 31.582 17.7656C31.5938 17.7598 31.6055 17.7598 31.6172 17.7539C31.6523 17.7422 31.6816 17.7363 31.7168 17.7305C31.7285 17.7305 31.7344 17.7246 31.7461 17.7246C31.7871 17.7129 31.834 17.707 31.875 17.7012C31.8867 17.7012 31.8926 17.7012 31.9043 17.6953C31.9395 17.6895 31.9746 17.6895 32.0098 17.6836H32.0449C32.0918 17.6836 32.1328 17.6777 32.1797 17.6777C32.2266 17.6777 32.2676 17.6777 32.3145 17.6836H32.3496C32.3848 17.6836 32.4199 17.6895 32.4551 17.6953C32.4668 17.6953 32.4727 17.6953 32.4844 17.7012C32.5254 17.707 32.5723 17.7129 32.6133 17.7246C32.625 17.7246 32.6309 17.7305 32.6426 17.7305C32.6777 17.7363 32.7129 17.748 32.7422 17.7539C32.7539 17.7598 32.7656 17.7598 32.7773 17.7656C32.8184 17.7773 32.8594 17.7891 32.9004 17.8066C32.9414 17.8184 32.9766 17.8359 33.0176 17.8535L33.0527 17.8711C33.082 17.8828 33.1172 17.9004 33.1465 17.918C33.1523 17.9238 33.1641 17.9238 33.1699 17.9297C33.2051 17.9473 33.2461 17.9707 33.2812 17.9941C33.2871 18 33.2988 18.0059 33.3047 18.0117C33.334 18.0293 33.3633 18.0469 33.3867 18.0703C33.3984 18.0762 33.4043 18.082 33.416 18.0879C33.4512 18.1113 33.4863 18.1406 33.5156 18.1641C33.5449 18.1875 33.5801 18.2168 33.6094 18.2461L33.6328 18.2695L33.7031 18.3398L33.7207 18.3574C33.75 18.3867 33.7793 18.4219 33.8027 18.4512C33.8086 18.457 33.8145 18.4688 33.8203 18.4746C33.8438 18.498 33.8613 18.5273 33.8789 18.5566C33.8848 18.5684 33.8906 18.5742 33.8965 18.5859L33.9668 18.6914V18.6973C34.1621 19.0251 34.2653 19.3996 34.2656 19.7812C34.2656 20.1328 34.1777 20.4668 34.0254 20.7598C34.0078 20.7949 33.9844 20.8301 33.9668 20.8652V20.8711L33.8965 20.9766C33.8906 20.9883 33.8848 20.9941 33.8789 21.0059C33.8613 21.0352 33.8379 21.0586 33.8203 21.0879C33.8145 21.0938 33.8086 21.1055 33.8027 21.1113C33.7734 21.1465 33.75 21.1758 33.7207 21.2051L33.7031 21.2227L33.6328 21.293L33.6094 21.3164C33.5801 21.3457 33.5508 21.3691 33.5156 21.3984C33.4805 21.4277 33.4512 21.4512 33.416 21.4746C33.4043 21.4805 33.3984 21.4863 33.3867 21.4922C33.3574 21.5098 33.334 21.5332 33.3047 21.5508C33.2988 21.5566 33.2871 21.5625 33.2812 21.5684C33.2461 21.5918 33.2109 21.6094 33.1699 21.6328C33.1641 21.6387 33.1523 21.6387 33.1465 21.6445C33.1172 21.6621 33.0879 21.6738 33.0527 21.6914L33.0176 21.709C32.9766 21.7266 32.9414 21.7441 32.9004 21.7559C32.8594 21.7734 32.8184 21.7852 32.7773 21.7969C32.7656 21.8027 32.7539 21.8027 32.7422 21.8086C32.707 21.8203 32.6777 21.8262 32.6426 21.832C32.6309 21.832 32.625 21.8379 32.6133 21.8379C32.5723 21.8496 32.5254 21.8555 32.4844 21.8613C32.4727 21.8613 32.4668 21.8613 32.4551 21.8672C32.4199 21.873 32.3848 21.873 32.3496 21.8789H32.3145C32.2676 21.8789 32.2266 21.8848 32.1797 21.8848C32.1328 21.8848 32.0918 21.8848 32.0449 21.8789H32.0098C31.9746 21.8789 31.9395 21.873 31.9043 21.8672C31.8926 21.8672 31.8867 21.8672 31.875 21.8613C31.834 21.8555 31.7871 21.8496 31.7461 21.8379C31.7344 21.8379 31.7285 21.832 31.7168 21.832C31.6816 21.8262 31.6465 21.8145 31.6172 21.8086C31.6055 21.8027 31.5938 21.8027 31.582 21.7969C31.541 21.7852 31.5 21.7734 31.459 21.7559C31.418 21.7441 31.3828 21.7266 31.3418 21.709L31.3066 21.6914C31.2773 21.6797 31.2422 21.6621 31.2129 21.6445C31.207 21.6387 31.1953 21.6387 31.1895 21.6328C31.1543 21.6152 31.1133 21.5918 31.0781 21.5684C31.0723 21.5625 31.0605 21.5566 31.0547 21.5508C31.0254 21.5332 30.9961 21.5156 30.9727 21.4922C30.9609 21.4863 30.9551 21.4805 30.9434 21.4746C30.9082 21.4512 30.873 21.4219 30.8438 21.3984C30.8145 21.375 30.7793 21.3457 30.75 21.3164L30.7266 21.293L30.6562 21.2227L30.6387 21.2051C30.6094 21.1758 30.5801 21.1406 30.5566 21.1113C30.5508 21.1055 30.5449 21.0938 30.5391 21.0879C30.5156 21.0645 30.498 21.0352 30.4805 21.0059C30.4746 20.9941 30.4688 20.9883 30.4629 20.9766L30.3926 20.8711V20.8652C30.3691 20.8301 30.3516 20.7949 30.334 20.7598C30.1816 20.4668 30.0938 20.1328 30.0938 19.7812C30.0938 19.4297 30.1816 19.0957 30.334 18.8027Z" fill="white"/>
</svg>
