<svg width="56" height="38" viewBox="0 0 56 38" fill="none" xmlns="http://www.w3.org/2000/svg">
<path d="M28 11.5867C26.0109 11.5867 24.1032 12.3768 22.6967 13.7834C21.2902 15.1899 20.5 17.0975 20.5 19.0867C20.5 21.0758 21.2902 22.9834 22.6967 24.39C24.1032 25.7965 26.0109 26.5867 28 26.5867C29.9891 26.5867 31.8968 25.7965 33.3033 24.39C34.7098 22.9834 35.5 21.0758 35.5 19.0867C35.5 17.0975 34.7098 15.1899 33.3033 13.7834C31.8968 12.3768 29.9891 11.5867 28 11.5867ZM28 31.5867C24.6848 31.5867 21.5054 30.2697 19.1612 27.9255C16.817 25.5813 15.5 22.4019 15.5 19.0867C15.5 15.7715 16.817 12.592 19.1612 10.2478C21.5054 7.90363 24.6848 6.58667 28 6.58667C31.3152 6.58667 34.4946 7.90363 36.8388 10.2478C39.183 12.592 40.5 15.7715 40.5 19.0867C40.5 22.4019 39.183 25.5813 36.8388 27.9255C34.4946 30.2697 31.3152 31.5867 28 31.5867ZM28 0.33667C15.5 0.33667 4.825 8.11167 0.5 19.0867C4.825 30.0617 15.5 37.8367 28 37.8367C40.5 37.8367 51.175 30.0617 55.5 19.0867C51.175 8.11167 40.5 0.33667 28 0.33667Z" fill="white"/>
</svg>
