<svg width="50" height="50" viewBox="0 0 50 50" fill="none" xmlns="http://www.w3.org/2000/svg">
<path d="M28.255 3.81255C30.6327 1.43488 33.8575 0.0991211 37.22 0.0991211C40.5825 0.0991211 43.8073 1.43488 46.185 3.81255C48.5627 6.19021 49.8984 9.41502 49.8984 12.7775C49.8984 16.1401 48.5627 19.3649 46.185 21.7425L21.74 46.1875C19.3623 48.5652 16.1375 49.901 12.775 49.901C9.41247 49.901 6.18766 48.5652 3.81 46.1875C1.43233 43.8099 0.0965729 40.5851 0.0965729 37.2225C0.0965729 33.86 1.43233 30.6352 3.81 28.2575L28.255 3.81255ZM43.5325 6.46505C42.7037 5.63581 41.7196 4.978 40.6365 4.5292C39.5534 4.0804 38.3924 3.8494 37.22 3.8494C36.0476 3.8494 34.8866 4.0804 33.8035 4.5292C32.7204 4.978 31.7363 5.63581 30.9075 6.46505L20.01 17.3625L32.635 29.9875L43.535 19.09C44.3642 18.2612 45.022 17.2771 45.4708 16.194C45.9196 15.1109 46.1506 13.95 46.1506 12.7775C46.1506 11.6051 45.9196 10.4442 45.4708 9.36107C45.022 8.27795 44.3617 7.29387 43.5325 6.46505ZM22.02 40.6925C22.3512 40.3371 22.5315 39.867 22.5229 39.3812C22.5144 38.8955 22.3176 38.432 21.9741 38.0885C21.6305 37.745 21.1671 37.5482 20.6813 37.5396C20.1956 37.531 19.7254 37.7113 19.37 38.0425L15.7675 41.6425C15.0737 42.337 14.1353 42.7318 13.1537 42.7421C12.1721 42.7524 11.2257 42.3774 10.5175 41.6975L10.475 41.6575C10.2974 41.487 10.0879 41.3531 9.85856 41.2635C9.6292 41.1739 9.38443 41.1303 9.13824 41.1353C8.89205 41.1403 8.64925 41.1938 8.42371 41.2926C8.19817 41.3914 7.9943 41.5337 7.82375 41.7113C7.65319 41.8889 7.51929 42.0984 7.42969 42.3277C7.34009 42.5571 7.29654 42.8019 7.30153 43.048C7.30652 43.2942 7.35995 43.537 7.45878 43.7626C7.5576 43.9881 7.69988 44.192 7.8775 44.3625L7.92 44.4025C9.33599 45.7625 11.2288 46.513 13.1919 46.4929C15.1551 46.4728 17.0322 45.6837 18.42 44.295L22.02 40.6925Z" fill="white"/>
</svg>
