<svg width="48" height="67" viewBox="0 0 48 67" fill="none" xmlns="http://www.w3.org/2000/svg">
<path d="M47.6221 33.6295C47.6212 29.9211 46.7466 26.265 45.069 22.9577C43.3915 19.6503 40.9583 16.7848 37.9667 14.5933L36.1242 4.4419C35.927 3.3528 35.3538 2.36748 34.5044 1.65786C33.655 0.948243 32.5834 0.559367 31.4766 0.559082H16.5241C15.4173 0.559367 14.3457 0.948243 13.4963 1.65786C12.6469 2.36748 12.0736 3.3528 11.8765 4.4419L10.034 14.5933C7.04154 16.7841 4.60771 19.6494 2.93 22.9569C1.25229 26.2644 0.37796 29.9208 0.37796 33.6295C0.37796 37.3381 1.25229 40.9946 2.93 44.3021C4.60771 47.6095 7.04154 50.4749 10.034 52.6656L11.8765 62.8171C12.0736 63.9062 12.6469 64.8915 13.4963 65.6011C14.3457 66.3107 15.4173 66.6996 16.5241 66.6999H31.4766C32.5834 66.6996 33.655 66.3107 34.5044 65.6011C35.3538 64.8915 35.927 63.9062 36.1242 62.8171L37.9667 52.6656C40.9583 50.4742 43.3915 47.6086 45.069 44.3013C46.7466 40.994 47.6212 37.3379 47.6221 33.6295ZM16.5241 5.28343H31.4766L32.6311 11.6465C27.0847 9.4616 20.916 9.4616 15.3696 11.6465L16.5241 5.28343ZM5.10296 33.6295C5.10296 29.8919 6.21128 26.2383 8.28774 23.1307C10.3642 20.023 13.3156 17.6009 16.7686 16.1706C20.2217 14.7403 24.0213 14.3661 27.687 15.0952C31.3528 15.8244 34.72 17.6242 37.3628 20.267C40.0056 22.9099 41.8054 26.2771 42.5346 29.9428C43.2638 33.6085 42.8895 37.4082 41.4592 40.8612C40.0289 44.3142 37.6068 47.2656 34.4992 49.3421C31.3915 51.4185 27.7379 52.5269 24.0003 52.5269C18.9901 52.5214 14.1867 50.5287 10.6439 46.9859C7.10116 43.4431 5.10844 38.6397 5.10296 33.6295ZM31.4766 61.9756H16.5241L15.3696 55.6124C20.916 57.7974 27.0847 57.7974 32.6311 55.6124L31.4766 61.9756ZM21.6382 33.6295V21.8186C21.6382 21.1921 21.887 20.5913 22.33 20.1483C22.773 19.7053 23.3739 19.4565 24.0003 19.4565C24.6268 19.4565 25.2277 19.7053 25.6706 20.1483C26.1136 20.5913 26.3625 21.1921 26.3625 21.8186V31.2673H35.8112C36.4377 31.2673 37.0385 31.5162 37.4815 31.9592C37.9245 32.4022 38.1734 33.003 38.1734 33.6295C38.1734 34.256 37.9245 34.8568 37.4815 35.2998C37.0385 35.7428 36.4377 35.9917 35.8112 35.9917H24.0003C23.3739 35.9917 22.773 35.7428 22.33 35.2998C21.887 34.8568 21.6382 34.256 21.6382 33.6295Z" fill="white"/>
</svg>
