<svg width="161" height="50" viewBox="0 0 161 50" fill="none" xmlns="http://www.w3.org/2000/svg">
<rect width="161" height="50" rx="8" fill="black"/>
<g clip-path="url(#clip0_242_622)">
<path d="M39.364 9.01601C39.296 8.94001 36.846 9.04601 34.714 11.36C32.582 13.672 32.91 16.324 32.958 16.392C33.006 16.46 35.998 16.566 37.908 13.876C39.818 11.186 39.432 9.09401 39.364 9.01601ZM45.992 32.482C45.896 32.29 41.342 30.014 41.766 25.638C42.19 21.262 45.116 20.06 45.162 19.93C45.208 19.8 43.968 18.35 42.654 17.616C41.689 17.099 40.6214 16.8026 39.528 16.748C39.312 16.742 38.562 16.558 37.02 16.98C36.004 17.258 33.714 18.158 33.084 18.194C32.452 18.23 30.572 17.15 28.55 16.864C27.256 16.614 25.884 17.126 24.902 17.52C23.922 17.912 22.058 19.028 20.754 21.994C19.45 24.958 20.132 29.654 20.62 31.114C21.108 32.574 21.87 34.962 23.166 36.706C24.318 38.674 25.846 40.04 26.484 40.504C27.122 40.968 28.922 41.276 30.17 40.638C31.174 40.022 32.986 39.668 33.702 39.694C34.416 39.72 35.824 40.002 37.266 40.772C38.408 41.166 39.488 41.002 40.57 40.562C41.652 40.12 43.218 38.444 45.046 35.046C45.7393 33.466 46.0547 32.6113 45.992 32.482Z" fill="white"/>
<path d="M39.364 9.01601C39.296 8.94001 36.846 9.04601 34.714 11.36C32.582 13.672 32.91 16.324 32.958 16.392C33.006 16.46 35.998 16.566 37.908 13.876C39.818 11.186 39.432 9.09401 39.364 9.01601ZM45.992 32.482C45.896 32.29 41.342 30.014 41.766 25.638C42.19 21.262 45.116 20.06 45.162 19.93C45.208 19.8 43.968 18.35 42.654 17.616C41.689 17.099 40.6214 16.8026 39.528 16.748C39.312 16.742 38.562 16.558 37.02 16.98C36.004 17.258 33.714 18.158 33.084 18.194C32.452 18.23 30.572 17.15 28.55 16.864C27.256 16.614 25.884 17.126 24.902 17.52C23.922 17.912 22.058 19.028 20.754 21.994C19.45 24.958 20.132 29.654 20.62 31.114C21.108 32.574 21.87 34.962 23.166 36.706C24.318 38.674 25.846 40.04 26.484 40.504C27.122 40.968 28.922 41.276 30.17 40.638C31.174 40.022 32.986 39.668 33.702 39.694C34.416 39.72 35.824 40.002 37.266 40.772C38.408 41.166 39.488 41.002 40.57 40.562C41.652 40.12 43.218 38.444 45.046 35.046C45.7393 33.466 46.0547 32.6113 45.992 32.482Z" fill="white"/>
</g>
<path d="M56.6729 16H55.7617L55.7676 15.417H56.6729C56.9365 15.417 57.1572 15.3594 57.335 15.2441C57.5146 15.1289 57.6494 14.9639 57.7393 14.749C57.8311 14.5342 57.877 14.2783 57.877 13.9814V13.75C57.877 13.5195 57.8506 13.3154 57.7979 13.1377C57.7471 12.96 57.6709 12.8105 57.5693 12.6895C57.4697 12.5684 57.3467 12.4766 57.2002 12.4141C57.0557 12.3516 56.8887 12.3203 56.6992 12.3203H55.7441V11.7344H56.6992C56.9824 11.7344 57.2412 11.7822 57.4756 11.8779C57.71 11.9717 57.9121 12.1074 58.082 12.2852C58.2539 12.4629 58.3857 12.6758 58.4775 12.9238C58.5693 13.1719 58.6152 13.4492 58.6152 13.7559V13.9814C58.6152 14.2881 58.5693 14.5654 58.4775 14.8135C58.3857 15.0615 58.2539 15.2744 58.082 15.4521C57.9102 15.6279 57.7051 15.7637 57.4668 15.8594C57.2305 15.9531 56.9658 16 56.6729 16ZM56.1689 11.7344V16H55.4336V11.7344H56.1689ZM59.1484 14.4502V14.3828C59.1484 14.1543 59.1816 13.9424 59.248 13.7471C59.3145 13.5498 59.4102 13.3789 59.5352 13.2344C59.6621 13.0879 59.8164 12.9746 59.998 12.8945C60.1816 12.8125 60.3887 12.7715 60.6191 12.7715C60.8516 12.7715 61.0586 12.8125 61.2402 12.8945C61.4238 12.9746 61.5791 13.0879 61.7061 13.2344C61.833 13.3789 61.9297 13.5498 61.9961 13.7471C62.0625 13.9424 62.0957 14.1543 62.0957 14.3828V14.4502C62.0957 14.6787 62.0625 14.8906 61.9961 15.0859C61.9297 15.2812 61.833 15.4521 61.7061 15.5986C61.5791 15.7432 61.4248 15.8564 61.2432 15.9385C61.0615 16.0186 60.8555 16.0586 60.625 16.0586C60.3926 16.0586 60.1846 16.0186 60.001 15.9385C59.8193 15.8564 59.665 15.7432 59.5381 15.5986C59.4111 15.4521 59.3145 15.2812 59.248 15.0859C59.1816 14.8906 59.1484 14.6787 59.1484 14.4502ZM59.8545 14.3828V14.4502C59.8545 14.5928 59.8691 14.7275 59.8984 14.8545C59.9277 14.9814 59.9736 15.0928 60.0361 15.1885C60.0986 15.2842 60.1787 15.3594 60.2764 15.4141C60.374 15.4688 60.4902 15.4961 60.625 15.4961C60.7559 15.4961 60.8691 15.4688 60.9648 15.4141C61.0625 15.3594 61.1426 15.2842 61.2051 15.1885C61.2676 15.0928 61.3135 14.9814 61.3428 14.8545C61.374 14.7275 61.3896 14.5928 61.3896 14.4502V14.3828C61.3896 14.2422 61.374 14.1094 61.3428 13.9844C61.3135 13.8574 61.2666 13.7451 61.2021 13.6475C61.1396 13.5498 61.0596 13.4736 60.9619 13.4189C60.8662 13.3623 60.752 13.334 60.6191 13.334C60.4863 13.334 60.3711 13.3623 60.2734 13.4189C60.1777 13.4736 60.0986 13.5498 60.0361 13.6475C59.9736 13.7451 59.9277 13.8574 59.8984 13.9844C59.8691 14.1094 59.8545 14.2422 59.8545 14.3828ZM63.5488 15.2969L64.2812 12.8301H64.7324L64.6094 13.5684L63.8711 16H63.4668L63.5488 15.2969ZM63.1182 12.8301L63.6895 15.3086L63.7363 16H63.2852L62.4268 12.8301H63.1182ZM65.418 15.2793L65.9717 12.8301H66.6602L65.8047 16H65.3535L65.418 15.2793ZM64.8086 12.8301L65.5322 15.2676L65.623 16H65.2188L64.4717 13.5654L64.3486 12.8301H64.8086ZM67.8408 13.5068V16H67.1348V12.8301H67.7998L67.8408 13.5068ZM67.7148 14.2979L67.4863 14.2949C67.4883 14.0703 67.5195 13.8643 67.5801 13.6768C67.6426 13.4893 67.7285 13.3281 67.8379 13.1934C67.9492 13.0586 68.082 12.9551 68.2363 12.8828C68.3906 12.8086 68.5625 12.7715 68.752 12.7715C68.9043 12.7715 69.042 12.793 69.165 12.8359C69.29 12.877 69.3965 12.9443 69.4844 13.0381C69.5742 13.1318 69.6426 13.2539 69.6895 13.4043C69.7363 13.5527 69.7598 13.7354 69.7598 13.9521V16H69.0508V13.9492C69.0508 13.7969 69.0283 13.6768 68.9834 13.5889C68.9404 13.499 68.877 13.4355 68.793 13.3984C68.7109 13.3594 68.6084 13.3398 68.4854 13.3398C68.3643 13.3398 68.2559 13.3652 68.1602 13.416C68.0645 13.4668 67.9834 13.5361 67.917 13.624C67.8525 13.7119 67.8027 13.8135 67.7676 13.9287C67.7324 14.0439 67.7148 14.167 67.7148 14.2979ZM71.2363 11.5V16H70.5273V11.5H71.2363ZM71.875 14.4502V14.3828C71.875 14.1543 71.9082 13.9424 71.9746 13.7471C72.041 13.5498 72.1367 13.3789 72.2617 13.2344C72.3887 13.0879 72.543 12.9746 72.7246 12.8945C72.9082 12.8125 73.1152 12.7715 73.3457 12.7715C73.5781 12.7715 73.7852 12.8125 73.9668 12.8945C74.1504 12.9746 74.3057 13.0879 74.4326 13.2344C74.5596 13.3789 74.6562 13.5498 74.7227 13.7471C74.7891 13.9424 74.8223 14.1543 74.8223 14.3828V14.4502C74.8223 14.6787 74.7891 14.8906 74.7227 15.0859C74.6562 15.2812 74.5596 15.4521 74.4326 15.5986C74.3057 15.7432 74.1514 15.8564 73.9697 15.9385C73.7881 16.0186 73.582 16.0586 73.3516 16.0586C73.1191 16.0586 72.9111 16.0186 72.7275 15.9385C72.5459 15.8564 72.3916 15.7432 72.2646 15.5986C72.1377 15.4521 72.041 15.2812 71.9746 15.0859C71.9082 14.8906 71.875 14.6787 71.875 14.4502ZM72.5811 14.3828V14.4502C72.5811 14.5928 72.5957 14.7275 72.625 14.8545C72.6543 14.9814 72.7002 15.0928 72.7627 15.1885C72.8252 15.2842 72.9053 15.3594 73.0029 15.4141C73.1006 15.4688 73.2168 15.4961 73.3516 15.4961C73.4824 15.4961 73.5957 15.4688 73.6914 15.4141C73.7891 15.3594 73.8691 15.2842 73.9316 15.1885C73.9941 15.0928 74.04 14.9814 74.0693 14.8545C74.1006 14.7275 74.1162 14.5928 74.1162 14.4502V14.3828C74.1162 14.2422 74.1006 14.1094 74.0693 13.9844C74.04 13.8574 73.9932 13.7451 73.9287 13.6475C73.8662 13.5498 73.7861 13.4736 73.6885 13.4189C73.5928 13.3623 73.4785 13.334 73.3457 13.334C73.2129 13.334 73.0977 13.3623 73 13.4189C72.9043 13.4736 72.8252 13.5498 72.7627 13.6475C72.7002 13.7451 72.6543 13.8574 72.625 13.9844C72.5957 14.1094 72.5811 14.2422 72.5811 14.3828ZM77.2012 15.3643V13.8525C77.2012 13.7393 77.1807 13.6416 77.1396 13.5596C77.0986 13.4775 77.0361 13.4141 76.9521 13.3691C76.8701 13.3242 76.7666 13.3018 76.6416 13.3018C76.5264 13.3018 76.4268 13.3213 76.3428 13.3604C76.2588 13.3994 76.1934 13.4521 76.1465 13.5186C76.0996 13.585 76.0762 13.6602 76.0762 13.7441H75.373C75.373 13.6191 75.4033 13.498 75.4639 13.3809C75.5244 13.2637 75.6123 13.1592 75.7275 13.0674C75.8428 12.9756 75.9805 12.9033 76.1406 12.8506C76.3008 12.7979 76.4805 12.7715 76.6797 12.7715C76.918 12.7715 77.1289 12.8115 77.3125 12.8916C77.498 12.9717 77.6436 13.0928 77.749 13.2549C77.8564 13.415 77.9102 13.6162 77.9102 13.8584V15.2676C77.9102 15.4121 77.9199 15.542 77.9395 15.6572C77.9609 15.7705 77.9912 15.8691 78.0303 15.9531V16H77.3066C77.2734 15.9238 77.2471 15.8271 77.2275 15.71C77.21 15.5908 77.2012 15.4756 77.2012 15.3643ZM77.3037 14.0723L77.3096 14.5088H76.8027C76.6719 14.5088 76.5566 14.5215 76.457 14.5469C76.3574 14.5703 76.2744 14.6055 76.208 14.6523C76.1416 14.6992 76.0918 14.7559 76.0586 14.8223C76.0254 14.8887 76.0088 14.9639 76.0088 15.0479C76.0088 15.1318 76.0283 15.209 76.0674 15.2793C76.1064 15.3477 76.1631 15.4014 76.2373 15.4404C76.3135 15.4795 76.4053 15.499 76.5127 15.499C76.6572 15.499 76.7832 15.4697 76.8906 15.4111C77 15.3506 77.0859 15.2773 77.1484 15.1914C77.2109 15.1035 77.2441 15.0205 77.248 14.9424L77.4766 15.2559C77.4531 15.3359 77.4131 15.4219 77.3564 15.5137C77.2998 15.6055 77.2256 15.6934 77.1338 15.7773C77.0439 15.8594 76.9355 15.9268 76.8086 15.9795C76.6836 16.0322 76.5391 16.0586 76.375 16.0586C76.168 16.0586 75.9834 16.0176 75.8213 15.9355C75.6592 15.8516 75.5322 15.7393 75.4404 15.5986C75.3486 15.4561 75.3027 15.2949 75.3027 15.1152C75.3027 14.9473 75.334 14.7988 75.3965 14.6699C75.4609 14.5391 75.5547 14.4297 75.6777 14.3418C75.8027 14.2539 75.9551 14.1875 76.1348 14.1426C76.3145 14.0957 76.5195 14.0723 76.75 14.0723H77.3037ZM80.582 15.3438V11.5H81.291V16H80.6494L80.582 15.3438ZM78.5195 14.4502V14.3887C78.5195 14.1484 78.5479 13.9297 78.6045 13.7324C78.6611 13.5332 78.7432 13.3623 78.8506 13.2197C78.958 13.0752 79.0889 12.9648 79.2432 12.8887C79.3975 12.8105 79.5713 12.7715 79.7646 12.7715C79.9561 12.7715 80.124 12.8086 80.2686 12.8828C80.4131 12.957 80.5361 13.0635 80.6377 13.2021C80.7393 13.3389 80.8203 13.5029 80.8809 13.6943C80.9414 13.8838 80.9844 14.0947 81.0098 14.3271V14.5234C80.9844 14.75 80.9414 14.957 80.8809 15.1445C80.8203 15.332 80.7393 15.4941 80.6377 15.6309C80.5361 15.7676 80.4121 15.873 80.2656 15.9473C80.1211 16.0215 79.9521 16.0586 79.7588 16.0586C79.5674 16.0586 79.3945 16.0186 79.2402 15.9385C79.0879 15.8584 78.958 15.7461 78.8506 15.6016C78.7432 15.457 78.6611 15.2871 78.6045 15.0918C78.5479 14.8945 78.5195 14.6807 78.5195 14.4502ZM79.2256 14.3887V14.4502C79.2256 14.5947 79.2383 14.7295 79.2637 14.8545C79.291 14.9795 79.333 15.0898 79.3896 15.1855C79.4463 15.2793 79.5195 15.3535 79.6094 15.4082C79.7012 15.4609 79.8105 15.4873 79.9375 15.4873C80.0977 15.4873 80.2295 15.4521 80.333 15.3818C80.4365 15.3115 80.5176 15.2168 80.5762 15.0977C80.6367 14.9766 80.6777 14.8418 80.6992 14.6934V14.1631C80.6875 14.0479 80.6631 13.9404 80.626 13.8408C80.5908 13.7412 80.543 13.6543 80.4824 13.5801C80.4219 13.5039 80.3467 13.4453 80.2568 13.4043C80.1689 13.3613 80.0645 13.3398 79.9434 13.3398C79.8145 13.3398 79.7051 13.3672 79.6152 13.4219C79.5254 13.4766 79.4512 13.5518 79.3926 13.6475C79.3359 13.7432 79.2939 13.8545 79.2666 13.9814C79.2393 14.1084 79.2256 14.2441 79.2256 14.3887ZM83.3887 14.4502V14.3828C83.3887 14.1543 83.4219 13.9424 83.4883 13.7471C83.5547 13.5498 83.6504 13.3789 83.7754 13.2344C83.9023 13.0879 84.0566 12.9746 84.2383 12.8945C84.4219 12.8125 84.6289 12.7715 84.8594 12.7715C85.0918 12.7715 85.2988 12.8125 85.4805 12.8945C85.6641 12.9746 85.8193 13.0879 85.9463 13.2344C86.0732 13.3789 86.1699 13.5498 86.2363 13.7471C86.3027 13.9424 86.3359 14.1543 86.3359 14.3828V14.4502C86.3359 14.6787 86.3027 14.8906 86.2363 15.0859C86.1699 15.2812 86.0732 15.4521 85.9463 15.5986C85.8193 15.7432 85.665 15.8564 85.4834 15.9385C85.3018 16.0186 85.0957 16.0586 84.8652 16.0586C84.6328 16.0586 84.4248 16.0186 84.2412 15.9385C84.0596 15.8564 83.9053 15.7432 83.7783 15.5986C83.6514 15.4521 83.5547 15.2812 83.4883 15.0859C83.4219 14.8906 83.3887 14.6787 83.3887 14.4502ZM84.0947 14.3828V14.4502C84.0947 14.5928 84.1094 14.7275 84.1387 14.8545C84.168 14.9814 84.2139 15.0928 84.2764 15.1885C84.3389 15.2842 84.4189 15.3594 84.5166 15.4141C84.6143 15.4688 84.7305 15.4961 84.8652 15.4961C84.9961 15.4961 85.1094 15.4688 85.2051 15.4141C85.3027 15.3594 85.3828 15.2842 85.4453 15.1885C85.5078 15.0928 85.5537 14.9814 85.583 14.8545C85.6143 14.7275 85.6299 14.5928 85.6299 14.4502V14.3828C85.6299 14.2422 85.6143 14.1094 85.583 13.9844C85.5537 13.8574 85.5068 13.7451 85.4424 13.6475C85.3799 13.5498 85.2998 13.4736 85.2021 13.4189C85.1064 13.3623 84.9922 13.334 84.8594 13.334C84.7266 13.334 84.6113 13.3623 84.5137 13.4189C84.418 13.4736 84.3389 13.5498 84.2764 13.6475C84.2139 13.7451 84.168 13.8574 84.1387 13.9844C84.1094 14.1094 84.0947 14.2422 84.0947 14.3828ZM87.6279 13.5068V16H86.9219V12.8301H87.5869L87.6279 13.5068ZM87.502 14.2979L87.2734 14.2949C87.2754 14.0703 87.3066 13.8643 87.3672 13.6768C87.4297 13.4893 87.5156 13.3281 87.625 13.1934C87.7363 13.0586 87.8691 12.9551 88.0234 12.8828C88.1777 12.8086 88.3496 12.7715 88.5391 12.7715C88.6914 12.7715 88.8291 12.793 88.9521 12.8359C89.0771 12.877 89.1836 12.9443 89.2715 13.0381C89.3613 13.1318 89.4297 13.2539 89.4766 13.4043C89.5234 13.5527 89.5469 13.7354 89.5469 13.9521V16H88.8379V13.9492C88.8379 13.7969 88.8154 13.6768 88.7705 13.5889C88.7275 13.499 88.6641 13.4355 88.5801 13.3984C88.498 13.3594 88.3955 13.3398 88.2725 13.3398C88.1514 13.3398 88.043 13.3652 87.9473 13.416C87.8516 13.4668 87.7705 13.5361 87.7041 13.624C87.6396 13.7119 87.5898 13.8135 87.5547 13.9287C87.5195 14.0439 87.502 14.167 87.502 14.2979ZM93.2148 12.8301V13.3457H91.4277V12.8301H93.2148ZM91.9434 12.0537H92.6494V15.124C92.6494 15.2217 92.6631 15.2969 92.6904 15.3496C92.7197 15.4004 92.7598 15.4346 92.8105 15.4521C92.8613 15.4697 92.9209 15.4785 92.9893 15.4785C93.0381 15.4785 93.085 15.4756 93.1299 15.4697C93.1748 15.4639 93.2109 15.458 93.2383 15.4521L93.2412 15.9912C93.1826 16.0088 93.1143 16.0244 93.0361 16.0381C92.96 16.0518 92.8721 16.0586 92.7725 16.0586C92.6104 16.0586 92.4668 16.0303 92.3418 15.9736C92.2168 15.915 92.1191 15.8203 92.0488 15.6895C91.9785 15.5586 91.9434 15.3848 91.9434 15.168V12.0537ZM94.457 11.5V16H93.7539V11.5H94.457ZM94.334 14.2979L94.1055 14.2949C94.1074 14.0762 94.1377 13.874 94.1963 13.6885C94.2568 13.5029 94.3408 13.3418 94.4482 13.2051C94.5576 13.0664 94.6885 12.96 94.8408 12.8857C94.9932 12.8096 95.1621 12.7715 95.3477 12.7715C95.5039 12.7715 95.6445 12.793 95.7695 12.8359C95.8965 12.8789 96.0059 12.9482 96.0977 13.0439C96.1895 13.1377 96.2588 13.2607 96.3057 13.4131C96.3545 13.5635 96.3789 13.7471 96.3789 13.9639V16H95.6699V13.958C95.6699 13.8057 95.6475 13.6846 95.6025 13.5947C95.5596 13.5049 95.4961 13.4404 95.4121 13.4014C95.3281 13.3604 95.2256 13.3398 95.1045 13.3398C94.9775 13.3398 94.8652 13.3652 94.7676 13.416C94.6719 13.4668 94.5918 13.5361 94.5273 13.624C94.4629 13.7119 94.4141 13.8135 94.3809 13.9287C94.3496 14.0439 94.334 14.167 94.334 14.2979ZM98.4912 16.0586C98.2568 16.0586 98.0449 16.0205 97.8555 15.9443C97.668 15.8662 97.5078 15.7578 97.375 15.6191C97.2441 15.4805 97.1436 15.3174 97.0732 15.1299C97.0029 14.9424 96.9678 14.7402 96.9678 14.5234V14.4062C96.9678 14.1582 97.0039 13.9336 97.0762 13.7324C97.1484 13.5312 97.249 13.3594 97.3779 13.2168C97.5068 13.0723 97.6592 12.9619 97.835 12.8857C98.0107 12.8096 98.2012 12.7715 98.4062 12.7715C98.6328 12.7715 98.8311 12.8096 99.001 12.8857C99.1709 12.9619 99.3115 13.0693 99.4229 13.208C99.5361 13.3447 99.6201 13.5078 99.6748 13.6973C99.7314 13.8867 99.7598 14.0957 99.7598 14.3242V14.626H97.3105V14.1191H99.0625V14.0635C99.0586 13.9365 99.0332 13.8174 98.9863 13.7061C98.9414 13.5947 98.8721 13.5049 98.7783 13.4365C98.6846 13.3682 98.5596 13.334 98.4033 13.334C98.2861 13.334 98.1816 13.3594 98.0898 13.4102C98 13.459 97.9248 13.5303 97.8643 13.624C97.8037 13.7178 97.7568 13.8311 97.7236 13.9639C97.6924 14.0947 97.6768 14.2422 97.6768 14.4062V14.5234C97.6768 14.6621 97.6953 14.791 97.7324 14.9102C97.7715 15.0273 97.8281 15.1299 97.9023 15.2178C97.9766 15.3057 98.0664 15.375 98.1719 15.4258C98.2773 15.4746 98.3975 15.499 98.5322 15.499C98.7021 15.499 98.8535 15.4648 98.9863 15.3965C99.1191 15.3281 99.2344 15.2314 99.332 15.1064L99.7041 15.4668C99.6357 15.5664 99.5469 15.6621 99.4375 15.7539C99.3281 15.8438 99.1943 15.917 99.0361 15.9736C98.8799 16.0303 98.6982 16.0586 98.4912 16.0586ZM60.5859 25.1406L57.1875 35H55.1328L59.4141 23.625H60.7266L60.5859 25.1406ZM63.4297 35L60.0234 25.1406L59.875 23.625H61.1953L65.4922 35H63.4297ZM63.2656 30.7812V32.3359H57.0781V30.7812H63.2656ZM68.3281 28.1719V38.25H66.4453V26.5469H68.1797L68.3281 28.1719ZM73.8359 30.6953V30.8594C73.8359 31.474 73.763 32.0443 73.6172 32.5703C73.4766 33.0911 73.2656 33.5469 72.9844 33.9375C72.7083 34.3229 72.3672 34.6224 71.9609 34.8359C71.5547 35.0495 71.0859 35.1562 70.5547 35.1562C70.0286 35.1562 69.5677 35.0599 69.1719 34.8672C68.7812 34.6693 68.4505 34.3906 68.1797 34.0312C67.9089 33.6719 67.6901 33.25 67.5234 32.7656C67.362 32.276 67.2474 31.7396 67.1797 31.1562V30.5234C67.2474 29.9036 67.362 29.3411 67.5234 28.8359C67.6901 28.3307 67.9089 27.8958 68.1797 27.5312C68.4505 27.1667 68.7812 26.8854 69.1719 26.6875C69.5625 26.4896 70.0182 26.3906 70.5391 26.3906C71.0703 26.3906 71.5417 26.4948 71.9531 26.7031C72.3646 26.9062 72.7109 27.1979 72.9922 27.5781C73.2734 27.9531 73.4844 28.4062 73.625 28.9375C73.7656 29.4635 73.8359 30.0495 73.8359 30.6953ZM71.9531 30.8594V30.6953C71.9531 30.3047 71.9167 29.9427 71.8438 29.6094C71.7708 29.2708 71.6562 28.974 71.5 28.7188C71.3438 28.4635 71.1432 28.2656 70.8984 28.125C70.6589 27.9792 70.3698 27.9062 70.0312 27.9062C69.6979 27.9062 69.4115 27.9635 69.1719 28.0781C68.9323 28.1875 68.7318 28.3411 68.5703 28.5391C68.4089 28.737 68.2839 28.9688 68.1953 29.2344C68.1068 29.4948 68.0443 29.7786 68.0078 30.0859V31.6016C68.0703 31.9766 68.1771 32.3203 68.3281 32.6328C68.4792 32.9453 68.6927 33.1953 68.9688 33.3828C69.25 33.5651 69.6094 33.6562 70.0469 33.6562C70.3854 33.6562 70.6745 33.5833 70.9141 33.4375C71.1536 33.2917 71.349 33.0911 71.5 32.8359C71.6562 32.5755 71.7708 32.276 71.8438 31.9375C71.9167 31.599 71.9531 31.2396 71.9531 30.8594ZM77.3281 28.1719V38.25H75.4453V26.5469H77.1797L77.3281 28.1719ZM82.8359 30.6953V30.8594C82.8359 31.474 82.763 32.0443 82.6172 32.5703C82.4766 33.0911 82.2656 33.5469 81.9844 33.9375C81.7083 34.3229 81.3672 34.6224 80.9609 34.8359C80.5547 35.0495 80.0859 35.1562 79.5547 35.1562C79.0286 35.1562 78.5677 35.0599 78.1719 34.8672C77.7812 34.6693 77.4505 34.3906 77.1797 34.0312C76.9089 33.6719 76.6901 33.25 76.5234 32.7656C76.362 32.276 76.2474 31.7396 76.1797 31.1562V30.5234C76.2474 29.9036 76.362 29.3411 76.5234 28.8359C76.6901 28.3307 76.9089 27.8958 77.1797 27.5312C77.4505 27.1667 77.7812 26.8854 78.1719 26.6875C78.5625 26.4896 79.0182 26.3906 79.5391 26.3906C80.0703 26.3906 80.5417 26.4948 80.9531 26.7031C81.3646 26.9062 81.7109 27.1979 81.9922 27.5781C82.2734 27.9531 82.4844 28.4062 82.625 28.9375C82.7656 29.4635 82.8359 30.0495 82.8359 30.6953ZM80.9531 30.8594V30.6953C80.9531 30.3047 80.9167 29.9427 80.8438 29.6094C80.7708 29.2708 80.6562 28.974 80.5 28.7188C80.3438 28.4635 80.1432 28.2656 79.8984 28.125C79.6589 27.9792 79.3698 27.9062 79.0312 27.9062C78.6979 27.9062 78.4115 27.9635 78.1719 28.0781C77.9323 28.1875 77.7318 28.3411 77.5703 28.5391C77.4089 28.737 77.2839 28.9688 77.1953 29.2344C77.1068 29.4948 77.0443 29.7786 77.0078 30.0859V31.6016C77.0703 31.9766 77.1771 32.3203 77.3281 32.6328C77.4792 32.9453 77.6927 33.1953 77.9688 33.3828C78.25 33.5651 78.6094 33.6562 79.0469 33.6562C79.3854 33.6562 79.6745 33.5833 79.9141 33.4375C80.1536 33.2917 80.349 33.0911 80.5 32.8359C80.6562 32.5755 80.7708 32.276 80.8438 31.9375C80.9167 31.599 80.9531 31.2396 80.9531 30.8594ZM86.4531 23V35H84.5625V23H86.4531ZM92.2422 35.1562C91.6172 35.1562 91.0521 35.0547 90.5469 34.8516C90.0469 34.6432 89.6198 34.3542 89.2656 33.9844C88.9167 33.6146 88.6484 33.1797 88.4609 32.6797C88.2734 32.1797 88.1797 31.6406 88.1797 31.0625V30.75C88.1797 30.0885 88.276 29.4896 88.4688 28.9531C88.6615 28.4167 88.9297 27.9583 89.2734 27.5781C89.6172 27.1927 90.0234 26.8984 90.4922 26.6953C90.9609 26.4922 91.4688 26.3906 92.0156 26.3906C92.6198 26.3906 93.1484 26.4922 93.6016 26.6953C94.0547 26.8984 94.4297 27.1849 94.7266 27.5547C95.0286 27.9193 95.2526 28.3542 95.3984 28.8594C95.5495 29.3646 95.625 29.9219 95.625 30.5312V31.3359H89.0938V29.9844H93.7656V29.8359C93.7552 29.4974 93.6875 29.1797 93.5625 28.8828C93.4427 28.5859 93.2578 28.3464 93.0078 28.1641C92.7578 27.9818 92.4245 27.8906 92.0078 27.8906C91.6953 27.8906 91.4167 27.9583 91.1719 28.0938C90.9323 28.224 90.7318 28.4141 90.5703 28.6641C90.4089 28.9141 90.2839 29.2161 90.1953 29.5703C90.112 29.9193 90.0703 30.3125 90.0703 30.75V31.0625C90.0703 31.4323 90.1198 31.776 90.2188 32.0938C90.3229 32.4062 90.474 32.6797 90.6719 32.9141C90.8698 33.1484 91.1094 33.3333 91.3906 33.4688C91.6719 33.599 91.9922 33.6641 92.3516 33.6641C92.8047 33.6641 93.2083 33.5729 93.5625 33.3906C93.9167 33.2083 94.224 32.9505 94.4844 32.6172L95.4766 33.5781C95.2943 33.8438 95.0573 34.099 94.7656 34.3438C94.474 34.5833 94.1172 34.7786 93.6953 34.9297C93.2786 35.0807 92.7943 35.1562 92.2422 35.1562ZM107.25 32.0703C107.25 31.8359 107.214 31.6276 107.141 31.4453C107.073 31.263 106.951 31.0964 106.773 30.9453C106.596 30.7943 106.346 30.6484 106.023 30.5078C105.706 30.362 105.299 30.2135 104.805 30.0625C104.263 29.8958 103.763 29.7109 103.305 29.5078C102.852 29.2995 102.456 29.0599 102.117 28.7891C101.779 28.513 101.516 28.1979 101.328 27.8438C101.141 27.4844 101.047 27.0703 101.047 26.6016C101.047 26.138 101.143 25.7161 101.336 25.3359C101.534 24.9557 101.812 24.6276 102.172 24.3516C102.536 24.0703 102.966 23.8542 103.461 23.7031C103.956 23.5469 104.503 23.4688 105.102 23.4688C105.945 23.4688 106.672 23.625 107.281 23.9375C107.896 24.25 108.367 24.6693 108.695 25.1953C109.029 25.7214 109.195 26.3021 109.195 26.9375H107.25C107.25 26.5625 107.169 26.2318 107.008 25.9453C106.852 25.6536 106.612 25.4245 106.289 25.2578C105.971 25.0911 105.568 25.0078 105.078 25.0078C104.615 25.0078 104.229 25.0781 103.922 25.2188C103.615 25.3594 103.385 25.5495 103.234 25.7891C103.083 26.0286 103.008 26.2995 103.008 26.6016C103.008 26.8151 103.057 27.0104 103.156 27.1875C103.255 27.3594 103.406 27.5208 103.609 27.6719C103.812 27.8177 104.068 27.9557 104.375 28.0859C104.682 28.2161 105.044 28.3411 105.461 28.4609C106.091 28.6484 106.641 28.8568 107.109 29.0859C107.578 29.3099 107.969 29.5651 108.281 29.8516C108.594 30.138 108.828 30.4635 108.984 30.8281C109.141 31.1875 109.219 31.5964 109.219 32.0547C109.219 32.5339 109.122 32.9661 108.93 33.3516C108.737 33.7318 108.461 34.0573 108.102 34.3281C107.747 34.5938 107.32 34.7995 106.82 34.9453C106.326 35.0859 105.773 35.1562 105.164 35.1562C104.617 35.1562 104.078 35.0833 103.547 34.9375C103.021 34.7917 102.542 34.5703 102.109 34.2734C101.677 33.9714 101.333 33.5964 101.078 33.1484C100.823 32.6953 100.695 32.1667 100.695 31.5625H102.656C102.656 31.9323 102.719 32.2474 102.844 32.5078C102.974 32.7682 103.154 32.9818 103.383 33.1484C103.612 33.3099 103.878 33.4297 104.18 33.5078C104.487 33.5859 104.815 33.625 105.164 33.625C105.622 33.625 106.005 33.5599 106.312 33.4297C106.625 33.2995 106.859 33.1172 107.016 32.8828C107.172 32.6484 107.25 32.3776 107.25 32.0703ZM114.641 26.5469V27.9219H109.875V26.5469H114.641ZM111.25 24.4766H113.133V32.6641C113.133 32.9245 113.169 33.125 113.242 33.2656C113.32 33.401 113.427 33.4922 113.562 33.5391C113.698 33.5859 113.857 33.6094 114.039 33.6094C114.169 33.6094 114.294 33.6016 114.414 33.5859C114.534 33.5703 114.63 33.5547 114.703 33.5391L114.711 34.9766C114.555 35.0234 114.372 35.0651 114.164 35.1016C113.961 35.138 113.727 35.1562 113.461 35.1562C113.029 35.1562 112.646 35.0807 112.312 34.9297C111.979 34.7734 111.719 34.5208 111.531 34.1719C111.344 33.8229 111.25 33.3594 111.25 32.7812V24.4766ZM115.547 30.8672V30.6875C115.547 30.0781 115.635 29.513 115.812 28.9922C115.99 28.4661 116.245 28.0104 116.578 27.625C116.917 27.2344 117.328 26.9323 117.812 26.7188C118.302 26.5 118.854 26.3906 119.469 26.3906C120.089 26.3906 120.641 26.5 121.125 26.7188C121.615 26.9323 122.029 27.2344 122.367 27.625C122.706 28.0104 122.964 28.4661 123.141 28.9922C123.318 29.513 123.406 30.0781 123.406 30.6875V30.8672C123.406 31.4766 123.318 32.0417 123.141 32.5625C122.964 33.0833 122.706 33.5391 122.367 33.9297C122.029 34.3151 121.617 34.6172 121.133 34.8359C120.648 35.0495 120.099 35.1562 119.484 35.1562C118.865 35.1562 118.31 35.0495 117.82 34.8359C117.336 34.6172 116.924 34.3151 116.586 33.9297C116.247 33.5391 115.99 33.0833 115.812 32.5625C115.635 32.0417 115.547 31.4766 115.547 30.8672ZM117.43 30.6875V30.8672C117.43 31.2474 117.469 31.6068 117.547 31.9453C117.625 32.2839 117.747 32.5807 117.914 32.8359C118.081 33.0911 118.294 33.2917 118.555 33.4375C118.815 33.5833 119.125 33.6562 119.484 33.6562C119.833 33.6562 120.135 33.5833 120.391 33.4375C120.651 33.2917 120.865 33.0911 121.031 32.8359C121.198 32.5807 121.32 32.2839 121.398 31.9453C121.482 31.6068 121.523 31.2474 121.523 30.8672V30.6875C121.523 30.3125 121.482 29.9583 121.398 29.625C121.32 29.2865 121.195 28.987 121.023 28.7266C120.857 28.4661 120.643 28.263 120.383 28.1172C120.128 27.9661 119.823 27.8906 119.469 27.8906C119.115 27.8906 118.807 27.9661 118.547 28.1172C118.292 28.263 118.081 28.4661 117.914 28.7266C117.747 28.987 117.625 29.2865 117.547 29.625C117.469 29.9583 117.43 30.3125 117.43 30.6875ZM126.875 28.1562V35H124.992V26.5469H126.789L126.875 28.1562ZM129.461 26.4922L129.445 28.2422C129.331 28.2214 129.206 28.2057 129.07 28.1953C128.94 28.1849 128.81 28.1797 128.68 28.1797C128.357 28.1797 128.073 28.2266 127.828 28.3203C127.583 28.4089 127.378 28.5391 127.211 28.7109C127.049 28.8776 126.924 29.0807 126.836 29.3203C126.747 29.5599 126.695 29.8281 126.68 30.125L126.25 30.1562C126.25 29.625 126.302 29.1328 126.406 28.6797C126.51 28.2266 126.667 27.8281 126.875 27.4844C127.089 27.1406 127.354 26.8724 127.672 26.6797C127.995 26.487 128.367 26.3906 128.789 26.3906C128.904 26.3906 129.026 26.401 129.156 26.4219C129.292 26.4427 129.393 26.4661 129.461 26.4922ZM134.211 35.1562C133.586 35.1562 133.021 35.0547 132.516 34.8516C132.016 34.6432 131.589 34.3542 131.234 33.9844C130.885 33.6146 130.617 33.1797 130.43 32.6797C130.242 32.1797 130.148 31.6406 130.148 31.0625V30.75C130.148 30.0885 130.245 29.4896 130.438 28.9531C130.63 28.4167 130.898 27.9583 131.242 27.5781C131.586 27.1927 131.992 26.8984 132.461 26.6953C132.93 26.4922 133.438 26.3906 133.984 26.3906C134.589 26.3906 135.117 26.4922 135.57 26.6953C136.023 26.8984 136.398 27.1849 136.695 27.5547C136.997 27.9193 137.221 28.3542 137.367 28.8594C137.518 29.3646 137.594 29.9219 137.594 30.5312V31.3359H131.062V29.9844H135.734V29.8359C135.724 29.4974 135.656 29.1797 135.531 28.8828C135.411 28.5859 135.227 28.3464 134.977 28.1641C134.727 27.9818 134.393 27.8906 133.977 27.8906C133.664 27.8906 133.385 27.9583 133.141 28.0938C132.901 28.224 132.701 28.4141 132.539 28.6641C132.378 28.9141 132.253 29.2161 132.164 29.5703C132.081 29.9193 132.039 30.3125 132.039 30.75V31.0625C132.039 31.4323 132.089 31.776 132.188 32.0938C132.292 32.4062 132.443 32.6797 132.641 32.9141C132.839 33.1484 133.078 33.3333 133.359 33.4688C133.641 33.599 133.961 33.6641 134.32 33.6641C134.773 33.6641 135.177 33.5729 135.531 33.3906C135.885 33.2083 136.193 32.9505 136.453 32.6172L137.445 33.5781C137.263 33.8438 137.026 34.099 136.734 34.3438C136.443 34.5833 136.086 34.7786 135.664 34.9297C135.247 35.0807 134.763 35.1562 134.211 35.1562Z" fill="white"/>
<defs>
<clipPath id="clip0_242_622">
<rect width="32" height="32" fill="white" transform="translate(17 9)"/>
</clipPath>
</defs>
</svg>
