<svg width="34" height="34" viewBox="0 0 34 34" fill="none" xmlns="http://www.w3.org/2000/svg">
<path d="M10 0.333252H24C29.3333 0.333252 33.6667 4.66659 33.6667 9.99992V23.9999C33.6667 26.5637 32.6482 29.0224 30.8354 30.8353C29.0225 32.6481 26.5638 33.6666 24 33.6666H10C4.66666 33.6666 0.333328 29.3333 0.333328 23.9999V9.99992C0.333328 7.43616 1.35178 4.9774 3.16463 3.16455C4.97748 1.3517 7.43624 0.333252 10 0.333252ZM9.66666 3.66659C8.07536 3.66659 6.54924 4.29873 5.42402 5.42394C4.2988 6.54916 3.66666 8.07529 3.66666 9.66658V24.3333C3.66666 27.6499 6.34999 30.3333 9.66666 30.3333H24.3333C25.9246 30.3333 27.4508 29.7011 28.576 28.5759C29.7012 27.4507 30.3333 25.9245 30.3333 24.3333V9.66658C30.3333 6.34992 27.65 3.66659 24.3333 3.66659H9.66666ZM25.75 6.16658C26.3025 6.16658 26.8324 6.38608 27.2231 6.77678C27.6138 7.16748 27.8333 7.69738 27.8333 8.24992C27.8333 8.80245 27.6138 9.33236 27.2231 9.72306C26.8324 10.1138 26.3025 10.3333 25.75 10.3333C25.1975 10.3333 24.6676 10.1138 24.2769 9.72306C23.8862 9.33236 23.6667 8.80245 23.6667 8.24992C23.6667 7.69738 23.8862 7.16748 24.2769 6.77678C24.6676 6.38608 25.1975 6.16658 25.75 6.16658ZM17 8.66658C19.2101 8.66658 21.3297 9.54456 22.8926 11.1074C24.4554 12.6702 25.3333 14.7898 25.3333 16.9999C25.3333 19.2101 24.4554 21.3297 22.8926 22.8925C21.3297 24.4553 19.2101 25.3333 17 25.3333C14.7899 25.3333 12.6702 24.4553 11.1074 22.8925C9.54463 21.3297 8.66666 19.2101 8.66666 16.9999C8.66666 14.7898 9.54463 12.6702 11.1074 11.1074C12.6702 9.54456 14.7899 8.66658 17 8.66658ZM17 11.9999C15.6739 11.9999 14.4021 12.5267 13.4645 13.4644C12.5268 14.4021 12 15.6738 12 16.9999C12 18.326 12.5268 19.5978 13.4645 20.5355C14.4021 21.4731 15.6739 21.9999 17 21.9999C18.3261 21.9999 19.5978 21.4731 20.5355 20.5355C21.4732 19.5978 22 18.326 22 16.9999C22 15.6738 21.4732 14.4021 20.5355 13.4644C19.5978 12.5267 18.3261 11.9999 17 11.9999Z" fill="#0065FF"/>
</svg>
