<svg width="161" height="50" viewBox="0 0 161 50" fill="none" xmlns="http://www.w3.org/2000/svg">
<rect width="161" height="50" rx="8" fill="black"/>
<path d="M56.6729 16H55.7617L55.7676 15.417H56.6729C56.9365 15.417 57.1572 15.3594 57.335 15.2441C57.5146 15.1289 57.6494 14.9639 57.7393 14.749C57.8311 14.5342 57.877 14.2783 57.877 13.9814V13.75C57.877 13.5195 57.8506 13.3154 57.7979 13.1377C57.7471 12.96 57.6709 12.8105 57.5693 12.6895C57.4697 12.5684 57.3467 12.4766 57.2002 12.4141C57.0557 12.3516 56.8887 12.3203 56.6992 12.3203H55.7441V11.7344H56.6992C56.9824 11.7344 57.2412 11.7822 57.4756 11.8779C57.71 11.9717 57.9121 12.1074 58.082 12.2852C58.2539 12.4629 58.3857 12.6758 58.4775 12.9238C58.5693 13.1719 58.6152 13.4492 58.6152 13.7559V13.9814C58.6152 14.2881 58.5693 14.5654 58.4775 14.8135C58.3857 15.0615 58.2539 15.2744 58.082 15.4521C57.9102 15.6279 57.7051 15.7637 57.4668 15.8594C57.2305 15.9531 56.9658 16 56.6729 16ZM56.1689 11.7344V16H55.4336V11.7344H56.1689ZM59.1484 14.4502V14.3828C59.1484 14.1543 59.1816 13.9424 59.248 13.7471C59.3145 13.5498 59.4102 13.3789 59.5352 13.2344C59.6621 13.0879 59.8164 12.9746 59.998 12.8945C60.1816 12.8125 60.3887 12.7715 60.6191 12.7715C60.8516 12.7715 61.0586 12.8125 61.2402 12.8945C61.4238 12.9746 61.5791 13.0879 61.7061 13.2344C61.833 13.3789 61.9297 13.5498 61.9961 13.7471C62.0625 13.9424 62.0957 14.1543 62.0957 14.3828V14.4502C62.0957 14.6787 62.0625 14.8906 61.9961 15.0859C61.9297 15.2812 61.833 15.4521 61.7061 15.5986C61.5791 15.7432 61.4248 15.8564 61.2432 15.9385C61.0615 16.0186 60.8555 16.0586 60.625 16.0586C60.3926 16.0586 60.1846 16.0186 60.001 15.9385C59.8193 15.8564 59.665 15.7432 59.5381 15.5986C59.4111 15.4521 59.3145 15.2812 59.248 15.0859C59.1816 14.8906 59.1484 14.6787 59.1484 14.4502ZM59.8545 14.3828V14.4502C59.8545 14.5928 59.8691 14.7275 59.8984 14.8545C59.9277 14.9814 59.9736 15.0928 60.0361 15.1885C60.0986 15.2842 60.1787 15.3594 60.2764 15.4141C60.374 15.4688 60.4902 15.4961 60.625 15.4961C60.7559 15.4961 60.8691 15.4688 60.9648 15.4141C61.0625 15.3594 61.1426 15.2842 61.2051 15.1885C61.2676 15.0928 61.3135 14.9814 61.3428 14.8545C61.374 14.7275 61.3896 14.5928 61.3896 14.4502V14.3828C61.3896 14.2422 61.374 14.1094 61.3428 13.9844C61.3135 13.8574 61.2666 13.7451 61.2021 13.6475C61.1396 13.5498 61.0596 13.4736 60.9619 13.4189C60.8662 13.3623 60.752 13.334 60.6191 13.334C60.4863 13.334 60.3711 13.3623 60.2734 13.4189C60.1777 13.4736 60.0986 13.5498 60.0361 13.6475C59.9736 13.7451 59.9277 13.8574 59.8984 13.9844C59.8691 14.1094 59.8545 14.2422 59.8545 14.3828ZM63.5488 15.2969L64.2812 12.8301H64.7324L64.6094 13.5684L63.8711 16H63.4668L63.5488 15.2969ZM63.1182 12.8301L63.6895 15.3086L63.7363 16H63.2852L62.4268 12.8301H63.1182ZM65.418 15.2793L65.9717 12.8301H66.6602L65.8047 16H65.3535L65.418 15.2793ZM64.8086 12.8301L65.5322 15.2676L65.623 16H65.2188L64.4717 13.5654L64.3486 12.8301H64.8086ZM67.8408 13.5068V16H67.1348V12.8301H67.7998L67.8408 13.5068ZM67.7148 14.2979L67.4863 14.2949C67.4883 14.0703 67.5195 13.8643 67.5801 13.6768C67.6426 13.4893 67.7285 13.3281 67.8379 13.1934C67.9492 13.0586 68.082 12.9551 68.2363 12.8828C68.3906 12.8086 68.5625 12.7715 68.752 12.7715C68.9043 12.7715 69.042 12.793 69.165 12.8359C69.29 12.877 69.3965 12.9443 69.4844 13.0381C69.5742 13.1318 69.6426 13.2539 69.6895 13.4043C69.7363 13.5527 69.7598 13.7354 69.7598 13.9521V16H69.0508V13.9492C69.0508 13.7969 69.0283 13.6768 68.9834 13.5889C68.9404 13.499 68.877 13.4355 68.793 13.3984C68.7109 13.3594 68.6084 13.3398 68.4854 13.3398C68.3643 13.3398 68.2559 13.3652 68.1602 13.416C68.0645 13.4668 67.9834 13.5361 67.917 13.624C67.8525 13.7119 67.8027 13.8135 67.7676 13.9287C67.7324 14.0439 67.7148 14.167 67.7148 14.2979ZM71.2363 11.5V16H70.5273V11.5H71.2363ZM71.875 14.4502V14.3828C71.875 14.1543 71.9082 13.9424 71.9746 13.7471C72.041 13.5498 72.1367 13.3789 72.2617 13.2344C72.3887 13.0879 72.543 12.9746 72.7246 12.8945C72.9082 12.8125 73.1152 12.7715 73.3457 12.7715C73.5781 12.7715 73.7852 12.8125 73.9668 12.8945C74.1504 12.9746 74.3057 13.0879 74.4326 13.2344C74.5596 13.3789 74.6562 13.5498 74.7227 13.7471C74.7891 13.9424 74.8223 14.1543 74.8223 14.3828V14.4502C74.8223 14.6787 74.7891 14.8906 74.7227 15.0859C74.6562 15.2812 74.5596 15.4521 74.4326 15.5986C74.3057 15.7432 74.1514 15.8564 73.9697 15.9385C73.7881 16.0186 73.582 16.0586 73.3516 16.0586C73.1191 16.0586 72.9111 16.0186 72.7275 15.9385C72.5459 15.8564 72.3916 15.7432 72.2646 15.5986C72.1377 15.4521 72.041 15.2812 71.9746 15.0859C71.9082 14.8906 71.875 14.6787 71.875 14.4502ZM72.5811 14.3828V14.4502C72.5811 14.5928 72.5957 14.7275 72.625 14.8545C72.6543 14.9814 72.7002 15.0928 72.7627 15.1885C72.8252 15.2842 72.9053 15.3594 73.0029 15.4141C73.1006 15.4688 73.2168 15.4961 73.3516 15.4961C73.4824 15.4961 73.5957 15.4688 73.6914 15.4141C73.7891 15.3594 73.8691 15.2842 73.9316 15.1885C73.9941 15.0928 74.04 14.9814 74.0693 14.8545C74.1006 14.7275 74.1162 14.5928 74.1162 14.4502V14.3828C74.1162 14.2422 74.1006 14.1094 74.0693 13.9844C74.04 13.8574 73.9932 13.7451 73.9287 13.6475C73.8662 13.5498 73.7861 13.4736 73.6885 13.4189C73.5928 13.3623 73.4785 13.334 73.3457 13.334C73.2129 13.334 73.0977 13.3623 73 13.4189C72.9043 13.4736 72.8252 13.5498 72.7627 13.6475C72.7002 13.7451 72.6543 13.8574 72.625 13.9844C72.5957 14.1094 72.5811 14.2422 72.5811 14.3828ZM77.2012 15.3643V13.8525C77.2012 13.7393 77.1807 13.6416 77.1396 13.5596C77.0986 13.4775 77.0361 13.4141 76.9521 13.3691C76.8701 13.3242 76.7666 13.3018 76.6416 13.3018C76.5264 13.3018 76.4268 13.3213 76.3428 13.3604C76.2588 13.3994 76.1934 13.4521 76.1465 13.5186C76.0996 13.585 76.0762 13.6602 76.0762 13.7441H75.373C75.373 13.6191 75.4033 13.498 75.4639 13.3809C75.5244 13.2637 75.6123 13.1592 75.7275 13.0674C75.8428 12.9756 75.9805 12.9033 76.1406 12.8506C76.3008 12.7979 76.4805 12.7715 76.6797 12.7715C76.918 12.7715 77.1289 12.8115 77.3125 12.8916C77.498 12.9717 77.6436 13.0928 77.749 13.2549C77.8564 13.415 77.9102 13.6162 77.9102 13.8584V15.2676C77.9102 15.4121 77.9199 15.542 77.9395 15.6572C77.9609 15.7705 77.9912 15.8691 78.0303 15.9531V16H77.3066C77.2734 15.9238 77.2471 15.8271 77.2275 15.71C77.21 15.5908 77.2012 15.4756 77.2012 15.3643ZM77.3037 14.0723L77.3096 14.5088H76.8027C76.6719 14.5088 76.5566 14.5215 76.457 14.5469C76.3574 14.5703 76.2744 14.6055 76.208 14.6523C76.1416 14.6992 76.0918 14.7559 76.0586 14.8223C76.0254 14.8887 76.0088 14.9639 76.0088 15.0479C76.0088 15.1318 76.0283 15.209 76.0674 15.2793C76.1064 15.3477 76.1631 15.4014 76.2373 15.4404C76.3135 15.4795 76.4053 15.499 76.5127 15.499C76.6572 15.499 76.7832 15.4697 76.8906 15.4111C77 15.3506 77.0859 15.2773 77.1484 15.1914C77.2109 15.1035 77.2441 15.0205 77.248 14.9424L77.4766 15.2559C77.4531 15.3359 77.4131 15.4219 77.3564 15.5137C77.2998 15.6055 77.2256 15.6934 77.1338 15.7773C77.0439 15.8594 76.9355 15.9268 76.8086 15.9795C76.6836 16.0322 76.5391 16.0586 76.375 16.0586C76.168 16.0586 75.9834 16.0176 75.8213 15.9355C75.6592 15.8516 75.5322 15.7393 75.4404 15.5986C75.3486 15.4561 75.3027 15.2949 75.3027 15.1152C75.3027 14.9473 75.334 14.7988 75.3965 14.6699C75.4609 14.5391 75.5547 14.4297 75.6777 14.3418C75.8027 14.2539 75.9551 14.1875 76.1348 14.1426C76.3145 14.0957 76.5195 14.0723 76.75 14.0723H77.3037ZM80.582 15.3438V11.5H81.291V16H80.6494L80.582 15.3438ZM78.5195 14.4502V14.3887C78.5195 14.1484 78.5479 13.9297 78.6045 13.7324C78.6611 13.5332 78.7432 13.3623 78.8506 13.2197C78.958 13.0752 79.0889 12.9648 79.2432 12.8887C79.3975 12.8105 79.5713 12.7715 79.7646 12.7715C79.9561 12.7715 80.124 12.8086 80.2686 12.8828C80.4131 12.957 80.5361 13.0635 80.6377 13.2021C80.7393 13.3389 80.8203 13.5029 80.8809 13.6943C80.9414 13.8838 80.9844 14.0947 81.0098 14.3271V14.5234C80.9844 14.75 80.9414 14.957 80.8809 15.1445C80.8203 15.332 80.7393 15.4941 80.6377 15.6309C80.5361 15.7676 80.4121 15.873 80.2656 15.9473C80.1211 16.0215 79.9521 16.0586 79.7588 16.0586C79.5674 16.0586 79.3945 16.0186 79.2402 15.9385C79.0879 15.8584 78.958 15.7461 78.8506 15.6016C78.7432 15.457 78.6611 15.2871 78.6045 15.0918C78.5479 14.8945 78.5195 14.6807 78.5195 14.4502ZM79.2256 14.3887V14.4502C79.2256 14.5947 79.2383 14.7295 79.2637 14.8545C79.291 14.9795 79.333 15.0898 79.3896 15.1855C79.4463 15.2793 79.5195 15.3535 79.6094 15.4082C79.7012 15.4609 79.8105 15.4873 79.9375 15.4873C80.0977 15.4873 80.2295 15.4521 80.333 15.3818C80.4365 15.3115 80.5176 15.2168 80.5762 15.0977C80.6367 14.9766 80.6777 14.8418 80.6992 14.6934V14.1631C80.6875 14.0479 80.6631 13.9404 80.626 13.8408C80.5908 13.7412 80.543 13.6543 80.4824 13.5801C80.4219 13.5039 80.3467 13.4453 80.2568 13.4043C80.1689 13.3613 80.0645 13.3398 79.9434 13.3398C79.8145 13.3398 79.7051 13.3672 79.6152 13.4219C79.5254 13.4766 79.4512 13.5518 79.3926 13.6475C79.3359 13.7432 79.2939 13.8545 79.2666 13.9814C79.2393 14.1084 79.2256 14.2441 79.2256 14.3887ZM83.3887 14.4502V14.3828C83.3887 14.1543 83.4219 13.9424 83.4883 13.7471C83.5547 13.5498 83.6504 13.3789 83.7754 13.2344C83.9023 13.0879 84.0566 12.9746 84.2383 12.8945C84.4219 12.8125 84.6289 12.7715 84.8594 12.7715C85.0918 12.7715 85.2988 12.8125 85.4805 12.8945C85.6641 12.9746 85.8193 13.0879 85.9463 13.2344C86.0732 13.3789 86.1699 13.5498 86.2363 13.7471C86.3027 13.9424 86.3359 14.1543 86.3359 14.3828V14.4502C86.3359 14.6787 86.3027 14.8906 86.2363 15.0859C86.1699 15.2812 86.0732 15.4521 85.9463 15.5986C85.8193 15.7432 85.665 15.8564 85.4834 15.9385C85.3018 16.0186 85.0957 16.0586 84.8652 16.0586C84.6328 16.0586 84.4248 16.0186 84.2412 15.9385C84.0596 15.8564 83.9053 15.7432 83.7783 15.5986C83.6514 15.4521 83.5547 15.2812 83.4883 15.0859C83.4219 14.8906 83.3887 14.6787 83.3887 14.4502ZM84.0947 14.3828V14.4502C84.0947 14.5928 84.1094 14.7275 84.1387 14.8545C84.168 14.9814 84.2139 15.0928 84.2764 15.1885C84.3389 15.2842 84.4189 15.3594 84.5166 15.4141C84.6143 15.4688 84.7305 15.4961 84.8652 15.4961C84.9961 15.4961 85.1094 15.4688 85.2051 15.4141C85.3027 15.3594 85.3828 15.2842 85.4453 15.1885C85.5078 15.0928 85.5537 14.9814 85.583 14.8545C85.6143 14.7275 85.6299 14.5928 85.6299 14.4502V14.3828C85.6299 14.2422 85.6143 14.1094 85.583 13.9844C85.5537 13.8574 85.5068 13.7451 85.4424 13.6475C85.3799 13.5498 85.2998 13.4736 85.2021 13.4189C85.1064 13.3623 84.9922 13.334 84.8594 13.334C84.7266 13.334 84.6113 13.3623 84.5137 13.4189C84.418 13.4736 84.3389 13.5498 84.2764 13.6475C84.2139 13.7451 84.168 13.8574 84.1387 13.9844C84.1094 14.1094 84.0947 14.2422 84.0947 14.3828ZM87.6279 13.5068V16H86.9219V12.8301H87.5869L87.6279 13.5068ZM87.502 14.2979L87.2734 14.2949C87.2754 14.0703 87.3066 13.8643 87.3672 13.6768C87.4297 13.4893 87.5156 13.3281 87.625 13.1934C87.7363 13.0586 87.8691 12.9551 88.0234 12.8828C88.1777 12.8086 88.3496 12.7715 88.5391 12.7715C88.6914 12.7715 88.8291 12.793 88.9521 12.8359C89.0771 12.877 89.1836 12.9443 89.2715 13.0381C89.3613 13.1318 89.4297 13.2539 89.4766 13.4043C89.5234 13.5527 89.5469 13.7354 89.5469 13.9521V16H88.8379V13.9492C88.8379 13.7969 88.8154 13.6768 88.7705 13.5889C88.7275 13.499 88.6641 13.4355 88.5801 13.3984C88.498 13.3594 88.3955 13.3398 88.2725 13.3398C88.1514 13.3398 88.043 13.3652 87.9473 13.416C87.8516 13.4668 87.7705 13.5361 87.7041 13.624C87.6396 13.7119 87.5898 13.8135 87.5547 13.9287C87.5195 14.0439 87.502 14.167 87.502 14.2979ZM93.2148 12.8301V13.3457H91.4277V12.8301H93.2148ZM91.9434 12.0537H92.6494V15.124C92.6494 15.2217 92.6631 15.2969 92.6904 15.3496C92.7197 15.4004 92.7598 15.4346 92.8105 15.4521C92.8613 15.4697 92.9209 15.4785 92.9893 15.4785C93.0381 15.4785 93.085 15.4756 93.1299 15.4697C93.1748 15.4639 93.2109 15.458 93.2383 15.4521L93.2412 15.9912C93.1826 16.0088 93.1143 16.0244 93.0361 16.0381C92.96 16.0518 92.8721 16.0586 92.7725 16.0586C92.6104 16.0586 92.4668 16.0303 92.3418 15.9736C92.2168 15.915 92.1191 15.8203 92.0488 15.6895C91.9785 15.5586 91.9434 15.3848 91.9434 15.168V12.0537ZM94.457 11.5V16H93.7539V11.5H94.457ZM94.334 14.2979L94.1055 14.2949C94.1074 14.0762 94.1377 13.874 94.1963 13.6885C94.2568 13.5029 94.3408 13.3418 94.4482 13.2051C94.5576 13.0664 94.6885 12.96 94.8408 12.8857C94.9932 12.8096 95.1621 12.7715 95.3477 12.7715C95.5039 12.7715 95.6445 12.793 95.7695 12.8359C95.8965 12.8789 96.0059 12.9482 96.0977 13.0439C96.1895 13.1377 96.2588 13.2607 96.3057 13.4131C96.3545 13.5635 96.3789 13.7471 96.3789 13.9639V16H95.6699V13.958C95.6699 13.8057 95.6475 13.6846 95.6025 13.5947C95.5596 13.5049 95.4961 13.4404 95.4121 13.4014C95.3281 13.3604 95.2256 13.3398 95.1045 13.3398C94.9775 13.3398 94.8652 13.3652 94.7676 13.416C94.6719 13.4668 94.5918 13.5361 94.5273 13.624C94.4629 13.7119 94.4141 13.8135 94.3809 13.9287C94.3496 14.0439 94.334 14.167 94.334 14.2979ZM98.4912 16.0586C98.2568 16.0586 98.0449 16.0205 97.8555 15.9443C97.668 15.8662 97.5078 15.7578 97.375 15.6191C97.2441 15.4805 97.1436 15.3174 97.0732 15.1299C97.0029 14.9424 96.9678 14.7402 96.9678 14.5234V14.4062C96.9678 14.1582 97.0039 13.9336 97.0762 13.7324C97.1484 13.5312 97.249 13.3594 97.3779 13.2168C97.5068 13.0723 97.6592 12.9619 97.835 12.8857C98.0107 12.8096 98.2012 12.7715 98.4062 12.7715C98.6328 12.7715 98.8311 12.8096 99.001 12.8857C99.1709 12.9619 99.3115 13.0693 99.4229 13.208C99.5361 13.3447 99.6201 13.5078 99.6748 13.6973C99.7314 13.8867 99.7598 14.0957 99.7598 14.3242V14.626H97.3105V14.1191H99.0625V14.0635C99.0586 13.9365 99.0332 13.8174 98.9863 13.7061C98.9414 13.5947 98.8721 13.5049 98.7783 13.4365C98.6846 13.3682 98.5596 13.334 98.4033 13.334C98.2861 13.334 98.1816 13.3594 98.0898 13.4102C98 13.459 97.9248 13.5303 97.8643 13.624C97.8037 13.7178 97.7568 13.8311 97.7236 13.9639C97.6924 14.0947 97.6768 14.2422 97.6768 14.4062V14.5234C97.6768 14.6621 97.6953 14.791 97.7324 14.9102C97.7715 15.0273 97.8281 15.1299 97.9023 15.2178C97.9766 15.3057 98.0664 15.375 98.1719 15.4258C98.2773 15.4746 98.3975 15.499 98.5322 15.499C98.7021 15.499 98.8535 15.4648 98.9863 15.3965C99.1191 15.3281 99.2344 15.2314 99.332 15.1064L99.7041 15.4668C99.6357 15.5664 99.5469 15.6621 99.4375 15.7539C99.3281 15.8438 99.1943 15.917 99.0361 15.9736C98.8799 16.0303 98.6982 16.0586 98.4912 16.0586ZM60.4766 30.7578H57.5156V29.2031H60.4766C60.9922 29.2031 61.4089 29.1198 61.7266 28.9531C62.0443 28.7865 62.276 28.5573 62.4219 28.2656C62.5729 27.9688 62.6484 27.6302 62.6484 27.25C62.6484 26.8906 62.5729 26.5547 62.4219 26.2422C62.276 25.9245 62.0443 25.6693 61.7266 25.4766C61.4089 25.2839 60.9922 25.1875 60.4766 25.1875H58.1172V35H56.1562V23.625H60.4766C61.3568 23.625 62.1042 23.7812 62.7188 24.0938C63.3385 24.401 63.8099 24.8281 64.1328 25.375C64.4557 25.9167 64.6172 26.5365 64.6172 27.2344C64.6172 27.9688 64.4557 28.599 64.1328 29.125C63.8099 29.651 63.3385 30.0547 62.7188 30.3359C62.1042 30.6172 61.3568 30.7578 60.4766 30.7578ZM68.2031 23V35H66.3125V23H68.2031ZM75.0312 33.3047V29.2734C75.0312 28.9714 74.9766 28.7109 74.8672 28.4922C74.7578 28.2734 74.5911 28.1042 74.3672 27.9844C74.1484 27.8646 73.8724 27.8047 73.5391 27.8047C73.2318 27.8047 72.9661 27.8568 72.7422 27.9609C72.5182 28.0651 72.3438 28.2057 72.2188 28.3828C72.0938 28.5599 72.0312 28.7604 72.0312 28.9844H70.1562C70.1562 28.651 70.237 28.3281 70.3984 28.0156C70.5599 27.7031 70.7943 27.4245 71.1016 27.1797C71.4089 26.9349 71.776 26.7422 72.2031 26.6016C72.6302 26.4609 73.1094 26.3906 73.6406 26.3906C74.276 26.3906 74.8385 26.4974 75.3281 26.7109C75.8229 26.9245 76.2109 27.2474 76.4922 27.6797C76.7786 28.1068 76.9219 28.6432 76.9219 29.2891V33.0469C76.9219 33.4323 76.9479 33.7786 77 34.0859C77.0573 34.388 77.138 34.651 77.2422 34.875V35H75.3125C75.224 34.7969 75.1536 34.5391 75.1016 34.2266C75.0547 33.9089 75.0312 33.6016 75.0312 33.3047ZM75.3047 29.8594L75.3203 31.0234H73.9688C73.6198 31.0234 73.3125 31.0573 73.0469 31.125C72.7812 31.1875 72.5599 31.2812 72.3828 31.4062C72.2057 31.5312 72.0729 31.6823 71.9844 31.8594C71.8958 32.0365 71.8516 32.237 71.8516 32.4609C71.8516 32.6849 71.9036 32.8906 72.0078 33.0781C72.112 33.2604 72.263 33.4036 72.4609 33.5078C72.6641 33.612 72.9089 33.6641 73.1953 33.6641C73.5807 33.6641 73.9167 33.5859 74.2031 33.4297C74.4948 33.2682 74.724 33.0729 74.8906 32.8438C75.0573 32.6094 75.1458 32.388 75.1562 32.1797L75.7656 33.0156C75.7031 33.2292 75.5964 33.4583 75.4453 33.7031C75.2943 33.9479 75.0964 34.1823 74.8516 34.4062C74.612 34.625 74.3229 34.8047 73.9844 34.9453C73.651 35.0859 73.2656 35.1562 72.8281 35.1562C72.276 35.1562 71.7839 35.0469 71.3516 34.8281C70.9193 34.6042 70.5807 34.3047 70.3359 33.9297C70.0911 33.5495 69.9688 33.1198 69.9688 32.6406C69.9688 32.1927 70.0521 31.7969 70.2188 31.4531C70.3906 31.1042 70.6406 30.8125 70.9688 30.5781C71.3021 30.3438 71.7083 30.1667 72.1875 30.0469C72.6667 29.9219 73.2135 29.8594 73.8281 29.8594H75.3047ZM81.2188 34.0781L83.5156 26.5469H85.5312L82.1406 36.2891C82.0625 36.4974 81.9609 36.724 81.8359 36.9688C81.7109 37.2135 81.5469 37.4453 81.3438 37.6641C81.1458 37.888 80.8984 38.0677 80.6016 38.2031C80.3047 38.3438 79.9453 38.4141 79.5234 38.4141C79.3568 38.4141 79.1953 38.3984 79.0391 38.3672C78.888 38.3411 78.7448 38.3125 78.6094 38.2812L78.6016 36.8438C78.6536 36.849 78.7161 36.8542 78.7891 36.8594C78.8672 36.8646 78.9297 36.8672 78.9766 36.8672C79.2891 36.8672 79.5495 36.8281 79.7578 36.75C79.9661 36.6771 80.1354 36.5573 80.2656 36.3906C80.401 36.224 80.5156 36 80.6094 35.7188L81.2188 34.0781ZM79.9219 26.5469L81.9297 32.875L82.2656 34.8594L80.9609 35.1953L77.8906 26.5469H79.9219ZM96.7656 32.0703C96.7656 31.8359 96.7292 31.6276 96.6562 31.4453C96.5885 31.263 96.4661 31.0964 96.2891 30.9453C96.112 30.7943 95.862 30.6484 95.5391 30.5078C95.2214 30.362 94.8151 30.2135 94.3203 30.0625C93.7786 29.8958 93.2786 29.7109 92.8203 29.5078C92.3672 29.2995 91.9714 29.0599 91.6328 28.7891C91.2943 28.513 91.0312 28.1979 90.8438 27.8438C90.6562 27.4844 90.5625 27.0703 90.5625 26.6016C90.5625 26.138 90.6589 25.7161 90.8516 25.3359C91.0495 24.9557 91.3281 24.6276 91.6875 24.3516C92.0521 24.0703 92.4818 23.8542 92.9766 23.7031C93.4714 23.5469 94.0182 23.4688 94.6172 23.4688C95.4609 23.4688 96.1875 23.625 96.7969 23.9375C97.4115 24.25 97.8828 24.6693 98.2109 25.1953C98.5443 25.7214 98.7109 26.3021 98.7109 26.9375H96.7656C96.7656 26.5625 96.6849 26.2318 96.5234 25.9453C96.3672 25.6536 96.1276 25.4245 95.8047 25.2578C95.487 25.0911 95.0833 25.0078 94.5938 25.0078C94.1302 25.0078 93.7448 25.0781 93.4375 25.2188C93.1302 25.3594 92.901 25.5495 92.75 25.7891C92.599 26.0286 92.5234 26.2995 92.5234 26.6016C92.5234 26.8151 92.5729 27.0104 92.6719 27.1875C92.7708 27.3594 92.9219 27.5208 93.125 27.6719C93.3281 27.8177 93.5833 27.9557 93.8906 28.0859C94.1979 28.2161 94.5599 28.3411 94.9766 28.4609C95.6068 28.6484 96.1562 28.8568 96.625 29.0859C97.0938 29.3099 97.4844 29.5651 97.7969 29.8516C98.1094 30.138 98.3438 30.4635 98.5 30.8281C98.6562 31.1875 98.7344 31.5964 98.7344 32.0547C98.7344 32.5339 98.638 32.9661 98.4453 33.3516C98.2526 33.7318 97.9766 34.0573 97.6172 34.3281C97.263 34.5938 96.8359 34.7995 96.3359 34.9453C95.8411 35.0859 95.2891 35.1562 94.6797 35.1562C94.1328 35.1562 93.5938 35.0833 93.0625 34.9375C92.5365 34.7917 92.0573 34.5703 91.625 34.2734C91.1927 33.9714 90.849 33.5964 90.5938 33.1484C90.3385 32.6953 90.2109 32.1667 90.2109 31.5625H92.1719C92.1719 31.9323 92.2344 32.2474 92.3594 32.5078C92.4896 32.7682 92.6693 32.9818 92.8984 33.1484C93.1276 33.3099 93.3932 33.4297 93.6953 33.5078C94.0026 33.5859 94.3307 33.625 94.6797 33.625C95.138 33.625 95.5208 33.5599 95.8281 33.4297C96.1406 33.2995 96.375 33.1172 96.5312 32.8828C96.6875 32.6484 96.7656 32.3776 96.7656 32.0703ZM104.156 26.5469V27.9219H99.3906V26.5469H104.156ZM100.766 24.4766H102.648V32.6641C102.648 32.9245 102.685 33.125 102.758 33.2656C102.836 33.401 102.943 33.4922 103.078 33.5391C103.214 33.5859 103.372 33.6094 103.555 33.6094C103.685 33.6094 103.81 33.6016 103.93 33.5859C104.049 33.5703 104.146 33.5547 104.219 33.5391L104.227 34.9766C104.07 35.0234 103.888 35.0651 103.68 35.1016C103.477 35.138 103.242 35.1562 102.977 35.1562C102.544 35.1562 102.161 35.0807 101.828 34.9297C101.495 34.7734 101.234 34.5208 101.047 34.1719C100.859 33.8229 100.766 33.3594 100.766 32.7812V24.4766ZM105.062 30.8672V30.6875C105.062 30.0781 105.151 29.513 105.328 28.9922C105.505 28.4661 105.76 28.0104 106.094 27.625C106.432 27.2344 106.844 26.9323 107.328 26.7188C107.818 26.5 108.37 26.3906 108.984 26.3906C109.604 26.3906 110.156 26.5 110.641 26.7188C111.13 26.9323 111.544 27.2344 111.883 27.625C112.221 28.0104 112.479 28.4661 112.656 28.9922C112.833 29.513 112.922 30.0781 112.922 30.6875V30.8672C112.922 31.4766 112.833 32.0417 112.656 32.5625C112.479 33.0833 112.221 33.5391 111.883 33.9297C111.544 34.3151 111.133 34.6172 110.648 34.8359C110.164 35.0495 109.615 35.1562 109 35.1562C108.38 35.1562 107.826 35.0495 107.336 34.8359C106.852 34.6172 106.44 34.3151 106.102 33.9297C105.763 33.5391 105.505 33.0833 105.328 32.5625C105.151 32.0417 105.062 31.4766 105.062 30.8672ZM106.945 30.6875V30.8672C106.945 31.2474 106.984 31.6068 107.062 31.9453C107.141 32.2839 107.263 32.5807 107.43 32.8359C107.596 33.0911 107.81 33.2917 108.07 33.4375C108.331 33.5833 108.641 33.6562 109 33.6562C109.349 33.6562 109.651 33.5833 109.906 33.4375C110.167 33.2917 110.38 33.0911 110.547 32.8359C110.714 32.5807 110.836 32.2839 110.914 31.9453C110.997 31.6068 111.039 31.2474 111.039 30.8672V30.6875C111.039 30.3125 110.997 29.9583 110.914 29.625C110.836 29.2865 110.711 28.987 110.539 28.7266C110.372 28.4661 110.159 28.263 109.898 28.1172C109.643 27.9661 109.339 27.8906 108.984 27.8906C108.63 27.8906 108.323 27.9661 108.062 28.1172C107.807 28.263 107.596 28.4661 107.43 28.7266C107.263 28.987 107.141 29.2865 107.062 29.625C106.984 29.9583 106.945 30.3125 106.945 30.6875ZM116.391 28.1562V35H114.508V26.5469H116.305L116.391 28.1562ZM118.977 26.4922L118.961 28.2422C118.846 28.2214 118.721 28.2057 118.586 28.1953C118.456 28.1849 118.326 28.1797 118.195 28.1797C117.872 28.1797 117.589 28.2266 117.344 28.3203C117.099 28.4089 116.893 28.5391 116.727 28.7109C116.565 28.8776 116.44 29.0807 116.352 29.3203C116.263 29.5599 116.211 29.8281 116.195 30.125L115.766 30.1562C115.766 29.625 115.818 29.1328 115.922 28.6797C116.026 28.2266 116.182 27.8281 116.391 27.4844C116.604 27.1406 116.87 26.8724 117.188 26.6797C117.51 26.487 117.883 26.3906 118.305 26.3906C118.419 26.3906 118.542 26.401 118.672 26.4219C118.807 26.4427 118.909 26.4661 118.977 26.4922ZM123.727 35.1562C123.102 35.1562 122.536 35.0547 122.031 34.8516C121.531 34.6432 121.104 34.3542 120.75 33.9844C120.401 33.6146 120.133 33.1797 119.945 32.6797C119.758 32.1797 119.664 31.6406 119.664 31.0625V30.75C119.664 30.0885 119.76 29.4896 119.953 28.9531C120.146 28.4167 120.414 27.9583 120.758 27.5781C121.102 27.1927 121.508 26.8984 121.977 26.6953C122.445 26.4922 122.953 26.3906 123.5 26.3906C124.104 26.3906 124.633 26.4922 125.086 26.6953C125.539 26.8984 125.914 27.1849 126.211 27.5547C126.513 27.9193 126.737 28.3542 126.883 28.8594C127.034 29.3646 127.109 29.9219 127.109 30.5312V31.3359H120.578V29.9844H125.25V29.8359C125.24 29.4974 125.172 29.1797 125.047 28.8828C124.927 28.5859 124.742 28.3464 124.492 28.1641C124.242 27.9818 123.909 27.8906 123.492 27.8906C123.18 27.8906 122.901 27.9583 122.656 28.0938C122.417 28.224 122.216 28.4141 122.055 28.6641C121.893 28.9141 121.768 29.2161 121.68 29.5703C121.596 29.9193 121.555 30.3125 121.555 30.75V31.0625C121.555 31.4323 121.604 31.776 121.703 32.0938C121.807 32.4062 121.958 32.6797 122.156 32.9141C122.354 33.1484 122.594 33.3333 122.875 33.4688C123.156 33.599 123.477 33.6641 123.836 33.6641C124.289 33.6641 124.693 33.5729 125.047 33.3906C125.401 33.2083 125.708 32.9505 125.969 32.6172L126.961 33.5781C126.779 33.8438 126.542 34.099 126.25 34.3438C125.958 34.5833 125.602 34.7786 125.18 34.9297C124.763 35.0807 124.279 35.1562 123.727 35.1562Z" fill="white"/>
<path d="M15.5367 10.5728L31.6974 25.0082L15.6569 39.5766C15.3951 39.265 15.1915 38.9161 15.0541 38.5442C14.982 38.1229 14.982 37.6939 15.0541 37.2726V12.481C15.006 11.8157 15.1743 11.1505 15.5349 10.5728M38.659 18.7126L33.3837 23.4722L17.4153 9.16814C17.9331 9.00477 18.4878 8.9593 19.0295 9.03677C19.8801 9.24899 20.6918 9.57572 21.437 10.0018L35.8891 17.2861C36.8285 17.7458 37.7437 18.2292 38.659 18.7126ZM33.3855 26.5661L38.635 31.2617L34.8296 33.1918L23.2195 39.0697C22.258 39.5531 21.2928 40.0145 20.3535 40.5417C19.9516 40.7698 19.5009 40.9171 19.0315 40.9738C18.5621 41.0304 18.0849 40.9951 17.6317 40.8701L33.3855 26.5661ZM46.9945 25.0082C47.009 25.5973 46.8461 26.1787 46.5234 26.6894C46.2006 27.2001 45.7305 27.6206 45.164 27.905L40.8261 30.0979L35.1181 25.0082L40.8501 19.8309C42.3201 20.577 43.7661 21.3231 45.2102 22.0254C45.7864 22.3183 46.2597 22.754 46.5752 23.2819C46.8907 23.8098 47.0373 24.4084 46.9945 25.0082Z" fill="white"/>
</svg>
