<svg width="34" height="28" viewBox="0 0 34 28" fill="none" xmlns="http://www.w3.org/2000/svg">
<path d="M17.4067 0.666748C18.2967 0.671748 20.5233 0.693415 22.89 0.788415L23.73 0.825081C26.1117 0.936748 28.4917 1.13008 29.6733 1.45841C31.2483 1.90175 32.485 3.19175 32.9033 4.82841C33.57 7.42841 33.6533 12.4984 33.6633 13.7267L33.665 13.9801V14.2701C33.6533 15.4984 33.57 20.5701 32.9033 23.1684C32.48 24.8101 31.2417 26.1017 29.6733 26.5384C28.4917 26.8667 26.1117 27.0601 23.73 27.1717L22.89 27.2101C20.5233 27.3034 18.2967 27.3267 17.4067 27.3301L17.015 27.3317H16.59C14.7067 27.3201 6.82999 27.2351 4.32333 26.5384C2.74999 26.0951 1.51166 24.8051 1.09333 23.1684C0.426662 20.5684 0.343328 15.4984 0.333328 14.2701V13.7267C0.343328 12.4984 0.426662 7.42675 1.09333 4.82841C1.51666 3.18675 2.75499 1.89508 4.32499 1.46008C6.82999 0.761748 14.7083 0.676748 16.5917 0.666748H17.4067ZM13.665 8.16675V19.8334L23.665 14.0001L13.665 8.16675Z" fill="#0065FF"/>
</svg>
